<svg width="21" height="22" viewBox="0 0 21 22" fill="none" xmlns="http://www.w3.org/2000/svg">
<path d="M3.5 19.4062H14V17.6562H3.5V7.15625H1.75V17.6562C1.75 18.6214 2.53487 19.4062 3.5 19.4062Z" fill="white"/>
<path d="M17.5 1.90625H7C6.03488 1.90625 5.25 2.69112 5.25 3.65625V14.1562C5.25 15.1214 6.03488 15.9062 7 15.9062H17.5C18.4651 15.9062 19.25 15.1214 19.25 14.1562V3.65625C19.25 2.69112 18.4651 1.90625 17.5 1.90625ZM15.75 9.78125H13.125V12.4062H11.375V9.78125H8.75V8.03125H11.375V5.40625H13.125V8.03125H15.75V9.78125Z" fill="white"/>
</svg>
