<svg width="33" height="33" viewBox="0 0 33 33" fill="none" xmlns="http://www.w3.org/2000/svg">
<path d="M16.5 32.5C12.2565 32.5 8.18687 30.8143 5.18629 27.8137C2.18571 24.8131 0.5 20.7435 0.5 16.5C0.5 12.2565 2.18571 8.18687 5.18629 5.18629C8.18687 2.18571 12.2565 0.5 16.5 0.5C20.7435 0.5 24.8131 2.18571 27.8137 5.18629C30.8143 8.18687 32.5 12.2565 32.5 16.5C32.5 20.7435 30.8143 24.8131 27.8137 27.8137C24.8131 30.8143 20.7435 32.5 16.5 32.5Z" stroke="#3399FF"/>
<path d="M24.2734 17.471C24.5469 17.471 24.8092 17.3624 25.0026 17.169C25.196 16.9756 25.3047 16.7133 25.3047 16.4398C25.3047 16.1663 25.196 15.904 25.0026 15.7106C24.8092 15.5172 24.5469 15.4085 24.2734 15.4085H12.3254L16.7536 10.9824C16.9472 10.7888 17.056 10.5261 17.056 10.2523C17.056 9.97843 16.9472 9.7158 16.7536 9.52215C16.5599 9.32851 16.2973 9.21973 16.0234 9.21973C15.7496 9.21973 15.487 9.32851 15.2933 9.52215L9.10581 15.7097C9.00978 15.8054 8.93358 15.9192 8.88159 16.0445C8.82961 16.1698 8.80285 16.3041 8.80285 16.4398C8.80285 16.5754 8.82961 16.7097 8.88159 16.835C8.93358 16.9603 9.00978 17.0741 9.10581 17.1699L15.2933 23.3574C15.487 23.551 15.7496 23.6598 16.0234 23.6598C16.2973 23.6598 16.5599 23.551 16.7536 23.3574C16.9472 23.1638 17.056 22.9011 17.056 22.6273C17.056 22.3534 16.9472 22.0908 16.7536 21.8972L12.3254 17.471H24.2734Z" fill="#3399FF"/>
</svg>
