<svg width="22" height="25" viewBox="0 0 22 25" fill="none" xmlns="http://www.w3.org/2000/svg">
<path d="M13.4615 12.2589L5.85156 10.7964V21.6031C5.85165 21.7205 5.87294 21.8368 5.91421 21.9452C5.95547 22.0536 6.01591 22.1521 6.09207 22.2351C6.16824 22.318 6.25863 22.3838 6.35809 22.4286C6.45755 22.4735 6.56413 22.4965 6.67175 22.4964H19.803C19.9107 22.4967 20.0175 22.4738 20.1171 22.4291C20.2167 22.3843 20.3073 22.3186 20.3836 22.2356C20.4599 22.1526 20.5204 22.0541 20.5618 21.9455C20.6031 21.837 20.6245 21.7207 20.6246 21.6031V17.6214L13.4615 12.2589Z" fill="#185C37"/>
<path d="M13.4615 2.99658H6.67175C6.56413 2.99648 6.45755 3.01951 6.35809 3.06435C6.25863 3.10918 6.16824 3.17495 6.09207 3.2579C6.01591 3.34084 5.95547 3.43934 5.91421 3.54777C5.87294 3.6562 5.85165 3.77243 5.85156 3.88983V7.87158L13.4615 12.7466L17.4909 14.2091L20.6246 12.7466V7.87158L13.4615 2.99658Z" fill="#21A366"/>
<path d="M5.85156 7.87158H13.4615V12.7466H5.85156V7.87158Z" fill="#107C41"/>
<path opacity="0.1" d="M11.2979 6.89648H5.85156V19.084H11.2979C11.515 19.0828 11.7228 18.9884 11.8765 18.8212C12.0301 18.654 12.1172 18.4275 12.1188 18.1907V7.78973C12.1172 7.55299 12.0301 7.32648 11.8765 7.15928C11.7228 6.99208 11.515 6.89766 11.2979 6.89648Z" fill="black"/>
<path opacity="0.2" d="M10.8504 7.38428H5.85156V19.5718H10.8504C11.0674 19.5706 11.2753 19.4762 11.4289 19.309C11.5826 19.1418 11.6696 18.9153 11.6712 18.6785V8.27753C11.6696 8.04078 11.5826 7.81427 11.4289 7.64707C11.2753 7.47987 11.0674 7.38545 10.8504 7.38428Z" fill="black"/>
<path opacity="0.2" d="M10.8504 7.38428H5.85156V18.5968H10.8504C11.0674 18.5956 11.2753 18.5012 11.4289 18.334C11.5826 18.1668 11.6696 17.9403 11.6712 17.7035V8.27753C11.6696 8.04078 11.5826 7.81427 11.4289 7.64707C11.2753 7.47987 11.0674 7.38545 10.8504 7.38428Z" fill="black"/>
<path opacity="0.2" d="M10.4028 7.38428H5.85156V18.5968H10.4028C10.6198 18.5956 10.8277 18.5012 10.9813 18.334C11.135 18.1668 11.2221 17.9403 11.2237 17.7035V8.27753C11.2221 8.04078 11.135 7.81427 10.9813 7.64707C10.8277 7.47987 10.6198 7.38545 10.4028 7.38428Z" fill="black"/>
<path d="M2.19587 7.38428H10.4032C10.6207 7.38408 10.8292 7.47805 10.9832 7.64555C11.1371 7.81304 11.2238 8.04036 11.2241 8.27753V17.216C11.2238 17.4532 11.1371 17.6805 10.9832 17.848C10.8292 18.0155 10.6207 18.1095 10.4032 18.1093H2.19587C2.0882 18.1095 1.98154 18.0865 1.882 18.0417C1.78246 17.9969 1.69199 17.9312 1.61576 17.8482C1.53952 17.7653 1.47902 17.6667 1.43771 17.5583C1.3964 17.4498 1.37509 17.3335 1.375 17.216V8.27753C1.37509 8.16006 1.3964 8.04377 1.43771 7.93529C1.47902 7.82682 1.53952 7.72828 1.61576 7.64533C1.69199 7.56237 1.78246 7.49662 1.882 7.45183C1.98154 7.40703 2.0882 7.38408 2.19587 7.38428Z" fill="url(#paint0_linear_944_4141)"/>
<path d="M3.91797 15.6513L5.64428 12.7383L4.06303 9.8418H5.33284L6.19566 11.6965C6.27541 11.872 6.33316 12.0025 6.35928 12.0895H6.37097C6.42734 11.9485 6.48716 11.8128 6.54972 11.68L7.47234 9.8448H8.64109L7.01928 12.7248L8.68234 15.6535H7.43866L6.44178 13.6203C6.39549 13.5329 6.35616 13.4413 6.32422 13.3465H6.30772C6.27865 13.4389 6.23989 13.5272 6.19222 13.6098L5.16578 15.6513H3.91797Z" fill="white"/>
<path d="M19.8031 2.99658H13.4609V7.87158H20.624V3.88983C20.6239 3.77237 20.6026 3.65607 20.5613 3.5476C20.52 3.43912 20.4595 3.34059 20.3832 3.25763C20.307 3.17468 20.2165 3.10892 20.117 3.06413C20.0175 3.01934 19.9108 2.99639 19.8031 2.99658Z" fill="#33C481"/>
<path d="M13.4609 12.7466H20.624V17.6216H13.4609V12.7466Z" fill="#107C41"/>
<defs>
<linearGradient id="paint0_linear_944_4141" x1="3.08962" y1="6.68228" x2="10.3832" y2="18.261" gradientUnits="userSpaceOnUse">
<stop stop-color="#18884F"/>
<stop offset="0.5" stop-color="#117E43"/>
<stop offset="1" stop-color="#0B6631"/>
</linearGradient>
</defs>
</svg>
