<svg width="26" height="24" viewBox="0 0 26 24" fill="none" xmlns="http://www.w3.org/2000/svg">
<path d="M15.8522 11.6438L5.87292 9.88574V22.8762C5.87304 23.0174 5.90096 23.1571 5.95507 23.2874C6.00919 23.4177 6.08845 23.5361 6.18832 23.6359C6.28819 23.7356 6.40673 23.8146 6.53716 23.8685C6.66759 23.9224 6.80735 23.9501 6.94848 23.95H24.1681C24.3094 23.9503 24.4494 23.9228 24.58 23.869C24.7107 23.8152 24.8294 23.7362 24.9295 23.6365C25.0295 23.5368 25.109 23.4183 25.1632 23.2878C25.2174 23.1574 25.2454 23.0175 25.2455 22.8762V18.0899L15.8522 11.6438Z" fill="#185C37"/>
<path d="M15.8522 0.508789H6.94848C6.80735 0.508671 6.66759 0.53635 6.53716 0.590247C6.40673 0.644144 6.28819 0.723203 6.18832 0.82291C6.08845 0.922617 6.00919 1.04102 5.95507 1.17136C5.90096 1.30169 5.87304 1.44141 5.87292 1.58254V6.36889L15.8522 12.229L21.1362 13.987L25.2455 12.229V6.36889L15.8522 0.508789Z" fill="#21A366"/>
<path d="M5.87292 6.36914H15.8522V12.2292H5.87292V6.36914Z" fill="#107C41"/>
<path opacity="0.1" d="M13.015 5.19727H5.87292V19.8475H13.015C13.2996 19.8461 13.5722 19.7326 13.7737 19.5316C13.9752 19.3306 14.0894 19.0583 14.0915 18.7738V6.27102C14.0894 5.98643 13.9752 5.71415 13.7737 5.51316C13.5722 5.31218 13.2996 5.19868 13.015 5.19727Z" fill="black"/>
<path opacity="0.2" d="M12.4281 5.78223H5.87292V19.2605H12.4281C12.7127 19.259 12.9853 19.1455 13.1868 18.9446C13.3883 18.7436 13.5024 18.4713 13.5046 18.1867V6.85598C13.5024 6.57139 13.3883 6.29911 13.1868 6.09812C12.9853 5.89714 12.7127 5.78364 12.4281 5.78223Z" fill="black"/>
<path opacity="0.2" d="M11.8412 5.78223H5.87292V19.2605H11.8412C12.1258 19.259 12.3984 19.1455 12.5999 18.9446C12.8014 18.7436 12.9155 18.4713 12.9177 18.1867V6.85598C12.9155 6.57139 12.8014 6.29911 12.5999 6.09812C12.3984 5.89714 12.1258 5.78364 11.8412 5.78223Z" fill="black"/>
<path d="M1.07829 5.78223H11.841C12.1261 5.78199 12.3997 5.89495 12.6015 6.09629C12.8034 6.29763 12.917 6.57088 12.9175 6.85598V17.6007C12.917 17.8858 12.8034 18.159 12.6015 18.3604C12.3997 18.5617 12.1261 18.6747 11.841 18.6744H1.07829C0.937085 18.6747 0.797221 18.6471 0.666689 18.5932C0.536157 18.5394 0.417515 18.4604 0.317545 18.3606C0.217575 18.2609 0.138237 18.1425 0.0840651 18.0121C0.029893 17.8817 0.00194931 17.7419 0.00183105 17.6007V6.85598C0.00194931 6.71478 0.029893 6.57498 0.0840651 6.44459C0.138237 6.31419 0.217575 6.19575 0.317545 6.09603C0.417515 5.99631 0.536157 5.91727 0.666689 5.86343C0.797221 5.80958 0.937085 5.78199 1.07829 5.78223Z" fill="url(#paint0_linear_11_446)"/>
<path d="M3.33777 15.7207L5.60157 12.2191L3.528 8.7373H5.19317L6.32462 10.9668C6.4292 11.1778 6.50493 11.3347 6.53919 11.4393H6.55451C6.62844 11.2698 6.70687 11.1066 6.78892 10.947L7.9988 8.74091H9.53144L7.40468 12.2029L9.58553 15.7234H7.95462L6.64737 13.2793C6.58667 13.1743 6.5351 13.0642 6.49321 12.9503H6.47157C6.43345 13.0612 6.38263 13.1674 6.32011 13.2667L4.97409 15.7207H3.33777Z" fill="white"/>
<path d="M24.1692 0.508791H15.8524V6.36889H25.2457V1.58254C25.2456 1.44134 25.2176 1.30155 25.1635 1.17115C25.1093 1.04075 25.03 0.922311 24.93 0.822592C24.83 0.722873 24.7114 0.643833 24.5808 0.589989C24.4503 0.536146 24.3104 0.508554 24.1692 0.508791Z" fill="#33C481"/>
<path d="M15.8524 12.2295H25.2457V18.0896H15.8524V12.2295Z" fill="#107C41"/>
<defs>
<linearGradient id="paint0_linear_11_446" x1="2.25031" y1="4.93837" x2="10.669" y2="19.5183" gradientUnits="userSpaceOnUse">
<stop stop-color="#18884F"/>
<stop offset="0.5" stop-color="#117E43"/>
<stop offset="1" stop-color="#0B6631"/>
</linearGradient>
</defs>
</svg>
