<svg width="25" height="33" viewBox="0 0 25 33" fill="none" xmlns="http://www.w3.org/2000/svg">
<path d="M14.5833 8.76562V0H1.5625C0.696615 0 0 0.689648 0 1.54688V31.4531C0 32.3104 0.696615 33 1.5625 33H23.4375C24.3034 33 25 32.3104 25 31.4531V10.3125H16.1458C15.2865 10.3125 14.5833 9.61641 14.5833 8.76562ZM19.5605 22.3884L13.2832 28.5566C12.8503 28.9826 12.151 28.9826 11.7181 28.5566L5.44075 22.3884C4.77995 21.7394 5.24349 20.625 6.17318 20.625H10.4167V15.4688C10.4167 14.899 10.8828 14.4375 11.4583 14.4375H13.5417C14.1172 14.4375 14.5833 14.899 14.5833 15.4688V20.625H18.8268C19.7565 20.625 20.2201 21.7394 19.5605 22.3884ZM24.5443 6.76758L18.1706 0.451172C17.8776 0.161133 17.4805 0 17.0638 0H16.6667V8.25H25V7.85684C25 7.45078 24.8372 7.05762 24.5443 6.76758Z" fill="#6E768C"/>
</svg>
