<svg width="382" height="172" viewBox="0 0 382 172" fill="none" xmlns="http://www.w3.org/2000/svg">
<path fill-rule="evenodd" clip-rule="evenodd" d="M2.70361 31.978L71.981 8.64068L72.0903 138.095L99.1465 138.107L103.835 67.4781L131.009 66.5001L108.232 55.5793L148.245 66.93L148.271 34.7883L75.8184 0.90612C71.96 -1.12717 70.7224 0.648894 66.7663 2.44034L2.70312 31.979L2.70361 31.978Z" fill="white"/>
<path fill-rule="evenodd" clip-rule="evenodd" d="M260.068 105.644L276.513 87.3507L260.246 87.7738L244.759 105.009L244.759 67.8481H231.016V138.519H244.759L244.774 122.708L251.03 115.708C252.154 116.728 263.258 136.321 264.051 138.517L279.004 138.436L260.068 105.644V105.644Z" fill="white"/>
<path fill-rule="evenodd" clip-rule="evenodd" d="M158.364 103.79L129.677 103.884C130.399 97.8593 138.314 94.0856 144.13 94.0971C150.428 94.1096 156.701 97.7911 158.364 103.79ZM167.414 126.795L156.898 121.429C148.288 130.018 130.688 127.901 128.739 114.152C134.47 114.066 168.943 114.684 171.291 113.845C174.207 105.793 166.935 88.2766 151.27 84.0826C137.874 80.4959 123.18 87.4304 117.976 100.147C112.563 113.376 118.041 127.543 130.316 134.595C141.792 141.186 160.066 138.061 167.414 126.795Z" fill="white"/>
<path fill-rule="evenodd" clip-rule="evenodd" d="M307.818 97.7174C325.821 93.07 329.12 124.31 314.181 128.299C296.056 133.139 292.085 101.779 307.818 97.7174ZM337.25 117.873C343.312 81.3929 290.198 74.1483 284.41 107.893C278.024 145.119 331.662 151.505 337.25 117.873Z" fill="white"/>
<path fill-rule="evenodd" clip-rule="evenodd" d="M220.352 86.1597L180.452 86.2414L180.451 96.979L200.562 97.0963C197.407 103.806 177.77 134.998 177.266 138.222L219.022 138.037L218.987 127.405L197.048 127.257L220.352 86.1597Z" fill="white"/>
<path fill-rule="evenodd" clip-rule="evenodd" d="M360.729 94.1096L360.55 87.4106L347.836 87.2779V138.519H361.584C361.588 129.314 361.146 118.916 362.023 109.845C363.056 99.1743 367.347 96.1169 377.362 100.448L381.429 88.9934C378.61 86.2428 372.666 85.6139 368.899 86.75C364.314 88.1333 363.526 91.2647 360.729 94.1101L360.729 94.1096Z" fill="white"/>
<path fill-rule="evenodd" clip-rule="evenodd" d="M40.3802 68.1701L47.9627 133.801C49.0056 121.783 48.1937 106.588 48.1824 94.2302C48.1707 80.9814 48.22 67.7177 48.1112 54.3828L0.5 68.9437L40.3802 68.1696V68.1701Z" fill="#FD5162"/>
<path fill-rule="evenodd" clip-rule="evenodd" d="M346.597 164.307C348.177 164.162 350.958 164.131 352.51 164.354C353.011 164.425 353.224 164.474 353.305 164.949C353.42 165.616 353.366 166.265 353.206 166.69C353.15 166.837 352.996 166.982 352.585 167.023C351.622 167.122 348.357 167.179 346.909 167.066C346.526 167.036 346.028 166.839 345.952 166.158C345.91 165.785 345.898 165.445 345.978 164.849C346.033 164.443 346.418 164.323 346.597 164.306V164.307ZM337.365 167.414C337.499 169.902 338.999 171.513 341.127 171.706C344.944 172.053 351.885 172.103 355.694 171.8C359.863 171.469 361.918 171.59 361.6 165.165C361.544 155.664 362.448 153.109 356.833 152.588C356.45 152.552 356.089 152.545 355.621 152.553C351.637 152.585 346.867 152.569 338.603 152.569L338.599 157.317C342.735 157.317 346.891 157.365 351.024 157.332C351.329 157.33 351.544 157.332 351.86 157.333C353.195 157.364 353.2 157.994 353.13 159.174C353.105 159.612 353.149 159.561 352.651 159.579C351.17 159.635 346.758 159.46 343.002 159.524C340.413 159.568 338.344 160.156 337.726 162.483C337.403 163.701 337.235 165.632 337.364 167.413L337.365 167.414Z" fill="#FD5162"/>
<path fill-rule="evenodd" clip-rule="evenodd" d="M316.6 153.6L308.085 153.594L302.903 159.004L302.841 146.562L295.578 146.642L295.609 171.753L302.897 171.793L302.899 167.426L305.383 164.766L309.913 171.794L317.281 171.736L310.38 159.623L316.6 153.6Z" fill="white"/>
<path fill-rule="evenodd" clip-rule="evenodd" d="M335.108 146.588C327.363 145.605 323.713 145.497 323.403 153.645L320.547 153.615L320.553 158.358L323.407 158.337L323.407 171.739L330.366 171.728L330.363 158.316L333.72 158.33L333.701 153.609L330.218 153.615C330.099 151.063 330.54 150.413 331.936 150.249C332.587 150.173 333.796 150.224 334.574 150.272L335.108 146.588H335.108Z" fill="white"/>
<path fill-rule="evenodd" clip-rule="evenodd" d="M276.058 164.307C277.638 164.162 280.419 164.131 281.971 164.354C282.471 164.425 282.685 164.474 282.766 164.949C282.881 165.616 282.827 166.265 282.667 166.69C282.611 166.837 282.457 166.982 282.046 167.023C281.083 167.122 277.818 167.179 276.37 167.066C275.986 167.036 275.489 166.839 275.413 166.158C275.371 165.785 275.359 165.445 275.439 164.849C275.494 164.443 275.879 164.323 276.058 164.306V164.307ZM266.825 167.414C266.96 169.902 268.46 171.513 270.588 171.706C274.405 172.053 281.346 172.103 285.155 171.8C289.324 171.469 291.379 171.59 291.061 165.165C291.005 155.664 291.909 153.109 286.294 152.588C285.911 152.552 285.55 152.545 285.081 152.553C281.098 152.585 276.328 152.569 268.064 152.569L268.06 157.317C272.196 157.317 276.352 157.365 280.485 157.332C280.79 157.33 281.005 157.332 281.321 157.333C282.656 157.364 282.661 157.994 282.591 159.174C282.566 159.612 282.61 159.561 282.112 159.579C280.631 159.635 276.219 159.46 272.462 159.524C269.874 159.568 267.805 160.156 267.187 162.483C266.864 163.701 266.696 165.632 266.825 167.413L266.825 167.414Z" fill="#FD5162"/>
</svg>
