<svg width="27" height="27" viewBox="0 0 27 27" fill="none" xmlns="http://www.w3.org/2000/svg">
<rect width="27" height="27" rx="13.5" fill="#0AA953"/>
<path d="M19.833 12.1663H14.833V7.16634C14.833 6.94533 14.7452 6.73337 14.5889 6.57709C14.4326 6.42081 14.2207 6.33301 13.9997 6.33301C13.7787 6.33301 13.5667 6.42081 13.4104 6.57709C13.2541 6.73337 13.1663 6.94533 13.1663 7.16634V12.1663H8.16634C7.94533 12.1663 7.73337 12.2541 7.57709 12.4104C7.42081 12.5667 7.33301 12.7787 7.33301 12.9997C7.33301 13.2207 7.42081 13.4326 7.57709 13.5889C7.73337 13.7452 7.94533 13.833 8.16634 13.833H13.1663V18.833C13.1663 19.054 13.2541 19.266 13.4104 19.4223C13.5667 19.5785 13.7787 19.6663 13.9997 19.6663C14.2207 19.6663 14.4326 19.5785 14.5889 19.4223C14.7452 19.266 14.833 19.054 14.833 18.833V13.833H19.833C20.054 13.833 20.266 13.7452 20.4223 13.5889C20.5785 13.4326 20.6663 13.2207 20.6663 12.9997C20.6663 12.7787 20.5785 12.5667 20.4223 12.4104C20.266 12.2541 20.054 12.1663 19.833 12.1663Z" fill="white"/>
</svg>
