<svg width="35" height="35" viewBox="0 0 35 35" fill="none" xmlns="http://www.w3.org/2000/svg">
<path fill-rule="evenodd" clip-rule="evenodd" d="M24.5339 9.98583V14.8887H22.0824V12.4373H14.7281C14.0786 12.4353 13.4562 12.1764 12.9968 11.7171C12.5375 11.2578 12.2786 10.6354 12.2767 9.98583V2.63154H2.47096V32.0487H22.0824V34.5002H2.47096C1.8208 34.5002 1.19727 34.2419 0.737539 33.7821C0.277806 33.3224 0.0195312 32.6989 0.0195312 32.0487V2.63154C0.0214712 1.98197 0.280369 1.35957 0.739682 0.900255C1.19899 0.440942 1.8214 0.182044 2.47096 0.180104H14.7281C14.8892 0.175697 15.0494 0.20629 15.1975 0.269774C15.3456 0.333258 15.4782 0.428121 15.5861 0.547819L24.1661 9.12783C24.2858 9.23579 24.3806 9.3684 24.4441 9.51651C24.5075 9.66463 24.5382 9.82474 24.5339 9.98583ZM14.7281 3.12182V9.98583H21.5921L14.7281 3.12182ZM11.0515 17.3403H4.92287V29.5975H7.3743V25.9203H11.0515C11.7013 25.9194 12.3243 25.6608 12.7838 25.2013C13.2433 24.7417 13.5019 24.1188 13.5029 23.4689V19.7918C13.5022 19.1418 13.2438 18.5186 12.7842 18.0591C12.3246 17.5995 11.7014 17.341 11.0515 17.3403ZM7.3743 23.4689V19.7918H11.0515L11.0527 23.4689H7.3743ZM20.8559 29.5975C21.8308 29.5965 22.7656 29.2088 23.4549 28.5194C24.1443 27.83 24.5321 26.8953 24.533 25.9203V21.0175C24.5321 20.0425 24.1443 19.1078 23.4549 18.4184C22.7656 17.729 21.8308 17.3413 20.8559 17.3403H15.953V29.5975H20.8559ZM20.8559 27.1461H18.4045V19.7918H20.8559C21.1809 19.7921 21.4924 19.9213 21.7222 20.1511C21.952 20.3809 22.0813 20.6925 22.0816 21.0175V25.9203C22.0813 26.2453 21.952 26.5569 21.7222 26.7867C21.4924 27.0165 21.1809 27.1457 20.8559 27.1461ZM34.339 17.3403V19.7918H29.4361V22.2432H33.1132V24.6946H29.4361V29.5975H26.9847V17.3403H34.339Z" fill="#C0C4C6"/>
</svg>
