<svg width="28" height="27" viewBox="0 0 28 27" fill="none" xmlns="http://www.w3.org/2000/svg">
<path fill-rule="evenodd" clip-rule="evenodd" d="M19.9307 7.29642C19.9803 7.41217 20.0043 7.53729 20.0009 7.66318V11.4946H18.0852V9.57889H12.338C11.8304 9.57738 11.344 9.37506 10.9851 9.01612C10.6262 8.65718 10.4238 8.17079 10.4223 7.66318V1.91604H2.75946V24.9046H18.0852V26.8203H2.75946C2.25138 26.8203 1.76412 26.6185 1.40485 26.2592C1.04558 25.8999 0.84375 25.4127 0.84375 24.9046V1.91604C0.845266 1.40843 1.04759 0.922038 1.40652 0.5631C1.76546 0.204162 2.25185 0.00184174 2.75946 0.00032571H12.338C12.4639 -0.00311862 12.5891 0.0207891 12.7048 0.0703997C12.8206 0.12001 12.9242 0.194143 13.0085 0.287683L19.7135 6.99268C19.807 7.07705 19.8811 7.18067 19.9307 7.29642ZM12.338 2.29918V7.66318H17.702L12.338 2.29918ZM9.46558 13.4105H4.6763V22.989H6.59201V20.1155H9.46558C9.97342 20.1147 10.4603 19.9126 10.8194 19.5535C11.1785 19.1944 11.3805 18.7076 11.3813 18.1998V15.3262C11.3808 14.8183 11.1788 14.3313 10.8196 13.9721C10.4605 13.613 9.9735 13.411 9.46558 13.4105ZM6.59201 18.1998V15.3262H9.46558L9.46654 18.1998H6.59201ZM13.2953 13.4105V22.989H17.1268C17.8886 22.9883 18.6191 22.6853 19.1578 22.1466C19.6966 21.6078 19.9996 20.8774 20.0003 20.1155V16.284C19.9996 15.5222 19.6966 14.7917 19.1578 14.253C18.6191 13.7142 17.8886 13.4112 17.1268 13.4105H13.2953ZM17.1268 21.0733H15.211V15.3262H17.1268C17.3807 15.3264 17.6242 15.4274 17.8038 15.607C17.9834 15.7866 18.0844 16.0301 18.0846 16.284V20.1155C18.0844 20.3694 17.9834 20.6129 17.8038 20.7925C17.6242 20.9721 17.3807 21.0731 17.1268 21.0733ZM27.663 13.4105V15.3262H23.8316V17.2419H26.7052V19.1576H23.8316V22.989H21.9159V13.4105H27.663Z" fill="#C0C4C6"/>
</svg>
