<svg width="31" height="31" viewBox="0 0 31 31" fill="none" xmlns="http://www.w3.org/2000/svg">
<path d="M6.42969 6.87988H25.1797V8.75488H6.42969V6.87988Z" fill="#5A6479"/>
<path d="M3.30469 15.6299H28.3047V11.2549C28.3047 9.87988 27.1797 8.75488 25.8047 8.75488H5.80469C4.42969 8.75488 3.30469 9.87988 3.30469 11.2549V15.6299Z" fill="#6E768C"/>
<path d="M5.80469 22.5049H25.8047C27.1797 22.5049 28.3047 21.3799 28.3047 20.0049V15.0049H3.30469V20.0049C3.30469 21.3799 4.42969 22.5049 5.80469 22.5049Z" fill="#6E768C"/>
<path d="M25.8047 11.8799C26.1499 11.8799 26.4297 11.6001 26.4297 11.2549C26.4297 10.9097 26.1499 10.6299 25.8047 10.6299C25.4595 10.6299 25.1797 10.9097 25.1797 11.2549C25.1797 11.6001 25.4595 11.8799 25.8047 11.8799Z" fill="#00E676"/>
<path d="M7.67969 2.50488H23.9297V8.75488H7.67969V2.50488Z" fill="#C0C4C6"/>
<path d="M24.2422 19.3799H7.36719C6.86719 19.3799 6.42969 18.9424 6.42969 18.4424C6.42969 17.9424 6.86719 17.5049 7.36719 17.5049H24.2422C24.7422 17.5049 25.1797 17.9424 25.1797 18.4424C25.1797 18.9424 24.7422 19.3799 24.2422 19.3799Z" fill="#5A6479"/>
<path d="M7.67969 19.3799H23.9297V26.2549H7.67969V19.3799Z" fill="#C0C4C6"/>
<path d="M7.67969 18.1299H23.9297V19.3799H7.67969V18.1299Z" fill="#42A5F5"/>
<path d="M10.8047 20.6299H21.4297V21.8799H10.8047V20.6299Z" fill="#1976D2"/>
<path d="M10.8047 23.1299H18.9297V24.3799H10.8047V23.1299Z" fill="#1976D2"/>
</svg>
