<svg width="41" height="41" viewBox="0 0 41 41" fill="none" xmlns="http://www.w3.org/2000/svg">
<rect opacity="0.5" x="0.84082" y="1.20605" width="39.5" height="39.5" rx="19.75" fill="#414A5A" stroke="#8692A9" stroke-width="0.5"/>
<path d="M30.5374 14.5887L31.0554 12.9363C31.1511 12.6319 31.3671 12.3769 31.656 12.2275C31.9449 12.0781 32.2829 12.0464 32.5958 12.1395C32.9087 12.2326 33.1707 12.4428 33.3243 12.7239C33.4779 13.005 33.5104 13.3339 33.4148 13.6383L31.9718 18.2283C31.8761 18.5325 31.6603 18.7873 31.3717 18.9367C31.083 19.0861 30.7453 19.1179 30.4326 19.0251L25.7151 17.6211C25.5569 17.5778 25.4092 17.5042 25.2807 17.4046C25.1522 17.3049 25.0455 17.1814 24.9667 17.041C24.888 16.9007 24.8389 16.7465 24.8222 16.5875C24.8056 16.4284 24.8218 16.2678 24.8699 16.1149C24.9179 15.962 24.9969 15.8201 25.1022 15.6973C25.2074 15.5745 25.3368 15.4735 25.4828 15.4001C25.6287 15.3266 25.7883 15.2823 25.952 15.2697C26.1158 15.2571 26.2806 15.2765 26.4366 15.3267L28.4987 15.9399C27.5871 14.5946 26.3155 13.5167 24.821 12.8224C23.3264 12.1281 21.6655 11.8436 20.0171 11.9997C18.3687 12.1557 16.7953 12.7463 15.4664 13.7079C14.1374 14.6695 13.1032 15.9656 12.4752 17.4567L12.1546 18.2163C12.0962 18.3663 12.0076 18.5033 11.894 18.6194C11.7803 18.7355 11.6439 18.8282 11.4928 18.8921C11.3416 18.956 11.1789 18.9898 11.0141 18.9915C10.8494 18.9932 10.6859 18.9628 10.5334 18.902C10.381 18.8412 10.2426 18.7513 10.1264 18.6376C10.0102 18.5239 9.91865 18.3887 9.85707 18.24C9.7955 18.0913 9.76517 17.9321 9.76789 17.7718C9.77061 17.6115 9.80631 17.4534 9.87289 17.3067L10.1936 16.5471C10.9906 14.655 12.3022 13.0099 13.9876 11.7884C15.6731 10.5669 17.6686 9.81511 19.76 9.61378C21.8514 9.41245 23.9597 9.76918 25.8585 10.6457C27.7572 11.5222 29.3748 12.8853 30.5374 14.5887ZM11.3936 27.3243L10.9903 28.8975C10.9542 29.0535 10.8864 29.201 10.791 29.3311C10.6955 29.4613 10.5742 29.5716 10.4343 29.6555C10.2944 29.7395 10.1386 29.7953 9.97622 29.8199C9.8138 29.8444 9.64798 29.8371 9.4885 29.7984C9.32902 29.7597 9.1791 29.6903 9.04756 29.5944C8.91601 29.4986 8.80549 29.378 8.7225 29.24C8.6395 29.102 8.5857 28.9492 8.56425 28.7906C8.54281 28.6321 8.55415 28.4709 8.59762 28.3167L9.79026 23.6607C9.83049 23.5022 9.90356 23.3533 10.005 23.2232C10.1064 23.0931 10.2341 22.9845 10.3801 22.9041C10.5262 22.8237 10.6875 22.7731 10.8544 22.7554C11.0212 22.7378 11.19 22.7535 11.3504 22.8015L16.0716 23.9463C16.3891 24.0233 16.6621 24.2199 16.8306 24.4928C16.9991 24.7656 17.0493 25.0924 16.9701 25.4013C16.8909 25.7102 16.6889 25.9758 16.4085 26.1398C16.128 26.3037 15.7921 26.3525 15.4747 26.2755L13.272 25.7415C14.2136 27.1441 15.5447 28.2582 17.1108 28.9547C18.6768 29.6511 20.4137 29.9012 22.12 29.6761C23.8263 29.451 25.432 28.7599 26.7509 27.6828C28.0698 26.6058 29.0479 25.1871 29.5717 23.5911C29.6209 23.4409 29.7001 23.3017 29.8046 23.1812C29.9092 23.0608 30.0371 22.9616 30.1811 22.8893C30.325 22.817 30.4822 22.773 30.6437 22.7598C30.8051 22.7465 30.9676 22.7644 31.122 22.8123C31.2763 22.8602 31.4195 22.9372 31.5432 23.039C31.667 23.1407 31.769 23.2651 31.8433 23.4052C31.9176 23.5453 31.9629 23.6982 31.9764 23.8553C31.99 24.0124 31.9717 24.1705 31.9224 24.3207C31.409 25.8879 30.5488 27.3265 29.4024 28.5354C28.2561 29.7443 26.8513 30.6941 25.2871 31.3179C22.8498 32.2894 20.1449 32.4232 17.6189 31.6971C15.0929 30.971 12.897 29.4285 11.3936 27.3243Z" fill="#3399FF"/>
</svg>
