<svg width="25" height="24" viewBox="0 0 25 24" fill="none" xmlns="http://www.w3.org/2000/svg">
<path d="M0.265625 3.42857C0.265625 2.51926 0.626848 1.64719 1.26983 1.00421C1.91281 0.361223 2.78488 0 3.6942 0H5.40848V6C5.40848 6.68199 5.6794 7.33604 6.16164 7.81827C6.64387 8.30051 7.29793 8.57143 7.97991 8.57143H14.8371C15.519 8.57143 16.1731 8.30051 16.6553 7.81827C17.1376 7.33604 17.4085 6.68199 17.4085 6V0H18.0582C18.9674 0.000194185 19.8394 0.361545 20.4822 1.00457L23.2611 3.78343C23.9041 4.42626 24.2654 5.29819 24.2656 6.20743V20.5714C24.2656 21.4807 23.9044 22.3528 23.2614 22.9958C22.6184 23.6388 21.7464 24 20.8371 24V14.5714C20.8371 13.8894 20.5661 13.2354 20.0839 12.7532C19.6017 12.2709 18.9476 12 18.2656 12H6.26562C5.58364 12 4.92959 12.2709 4.44735 12.7532C3.96511 13.2354 3.6942 13.8894 3.6942 14.5714V24C2.78488 24 1.91281 23.6388 1.26983 22.9958C0.626848 22.3528 0.265625 21.4807 0.265625 20.5714V3.42857Z" fill="#6E768C"/>
<path d="M15.6935 0H7.12207V6C7.12207 6.22733 7.21238 6.44534 7.37312 6.60609C7.53387 6.76684 7.75188 6.85714 7.97921 6.85714H14.8364C15.0637 6.85714 15.2817 6.76684 15.4424 6.60609C15.6032 6.44534 15.6935 6.22733 15.6935 6V0Z" fill="#6E768C"/>
<path d="M19.1225 14.571V23.9996H5.4082V14.571C5.4082 14.3437 5.49851 14.1257 5.65925 13.9649C5.82 13.8042 6.03802 13.7139 6.26535 13.7139H18.2653C18.4927 13.7139 18.7107 13.8042 18.8714 13.9649C19.0322 14.1257 19.1225 14.3437 19.1225 14.571Z" fill="#DC6470"/>
</svg>
