<svg width="29" height="26" viewBox="0 0 29 26" fill="none" xmlns="http://www.w3.org/2000/svg">
<path d="M18.6484 21.1721L22.1778 17.6427L18.6484 14.1133" stroke="white" stroke-width="1.2" stroke-linecap="round" stroke-linejoin="round"/>
<path d="M24.2891 21.1721L27.8185 17.6427L24.2891 14.1133" stroke="white" stroke-width="1.2" stroke-linecap="round" stroke-linejoin="round"/>
<path d="M27.8235 11.2894V2.11294C27.8235 1.73851 27.6748 1.37943 27.41 1.11467C27.1453 0.849911 26.7862 0.701172 26.4118 0.701172H2.41176C2.03734 0.701172 1.67825 0.849911 1.4135 1.11467C1.14874 1.37943 1 1.73851 1 2.11294V23.2894C1 23.6638 1.14874 24.0229 1.4135 24.2877C1.67825 24.5524 2.03734 24.7012 2.41176 24.7012H17.5671" stroke="white" stroke-width="1.2" stroke-linecap="round" stroke-linejoin="round"/>
<mask id="path-4-inside-1_357_4330" fill="white">
<path d="M14.4131 15.4336L14.4138 15.4986C14.4149 16.3979 14.0781 17.2649 13.47 17.9275L13.4721 17.9247C12.8387 18.6223 11.9821 19.0776 11.0495 19.2122L11.0277 19.215V20.8809C11.0277 20.9582 10.9969 21.0324 10.9423 21.0871C10.8876 21.1417 10.8134 21.1725 10.7361 21.1725H10.7241H10.7248H9.4493C9.36927 21.1715 9.29278 21.1393 9.23619 21.0827C9.17959 21.0262 9.14739 20.9497 9.14648 20.8696V19.215C8.72111 19.1582 8.30314 19.0555 7.89989 18.9087L7.94154 18.9221C7.33919 18.7206 6.77402 18.4216 6.26859 18.0369L6.28271 18.0475C6.12833 17.9359 5.98012 17.8159 5.83871 17.6882L5.84365 17.6925C5.76507 17.6172 5.71001 17.5607 5.67848 17.523C5.62744 17.4723 5.59731 17.4043 5.59405 17.3324C5.59078 17.2605 5.61461 17.19 5.66083 17.1348L5.66012 17.1355L6.63354 15.8593C6.6594 15.826 6.69215 15.7986 6.72955 15.7791C6.76695 15.7596 6.80812 15.7485 6.85024 15.7463H6.85095C6.89281 15.7387 6.93597 15.7425 6.97578 15.7576C7.01559 15.7727 7.05053 15.7983 7.07683 15.8317L7.07754 15.8325L7.09589 15.8508C7.73412 16.4352 8.51523 16.8408 9.36036 17.0268L9.39283 17.0332C9.60318 17.0812 9.8446 17.1087 10.0924 17.1087L10.1361 17.1094C10.6239 17.1094 11.0757 16.9569 11.4477 16.6972L11.4399 16.7021C11.6275 16.5753 11.7795 16.4024 11.8813 16.2002C11.9832 15.9979 12.0314 15.7728 12.0215 15.5466V15.5494C12.0215 15.3637 11.9686 15.1908 11.8775 15.0447L11.8797 15.0489C11.7936 14.9032 11.6874 14.7703 11.5641 14.6543L11.5634 14.6536C11.3993 14.516 11.2189 14.3991 11.0262 14.3056L11.0107 14.2986C10.7585 14.1696 10.5514 14.0687 10.3895 13.9957C10.2277 13.9228 9.97565 13.8205 9.63354 13.6887C9.38789 13.588 9.19401 13.5092 9.05189 13.4522C8.90977 13.3953 8.71589 13.3118 8.47024 13.2016C8.2246 13.0915 8.02765 12.9939 7.87942 12.9087C7.73118 12.8235 7.55307 12.7118 7.34507 12.5734C7.16285 12.456 6.99241 12.3212 6.83612 12.171L6.83683 12.1717C6.69499 12.0282 6.56069 11.8774 6.43448 11.72L6.4253 11.7087C6.29163 11.5467 6.18072 11.3671 6.09565 11.175L6.09001 11.1602C6.00802 10.9653 5.94307 10.7636 5.89589 10.5574L5.89095 10.532C5.83694 10.2953 5.80995 10.0533 5.81048 9.81057V9.79363V9.77246C5.81048 8.8901 6.16412 8.08963 6.73801 7.50657L6.7373 7.50728C7.37697 6.84226 8.21289 6.39968 9.12248 6.24446L9.14789 6.24093V4.53622V4.5334C9.14789 4.45081 9.18248 4.37599 9.23754 4.32305C9.26475 4.2947 9.29741 4.27214 9.33356 4.25674C9.36971 4.24133 9.4086 4.23339 9.44789 4.2334H10.7375C10.8985 4.2334 11.0291 4.36399 11.0291 4.52493V4.53693V4.53622V6.19999C11.4173 6.24093 11.7717 6.31787 12.1112 6.42799L12.0738 6.4174C12.3978 6.51622 12.6702 6.62422 12.9321 6.74987L12.8954 6.73434C13.1269 6.8494 13.3239 6.96728 13.5102 7.09857L13.4961 7.08869C13.6844 7.2214 13.8072 7.31269 13.8646 7.36257C13.922 7.41246 13.9693 7.45646 14.0065 7.49457C14.0573 7.53829 14.0901 7.59921 14.0987 7.66566C14.1073 7.7321 14.091 7.79938 14.0531 7.85457L14.0538 7.85387L13.29 9.23457C13.2709 9.27701 13.2407 9.31348 13.2026 9.34009C13.1644 9.36669 13.1197 9.38243 13.0733 9.38563H13.0726C13.0278 9.39496 12.9814 9.39382 12.9371 9.38231C12.8928 9.3708 12.8517 9.34923 12.8171 9.31928H12.8178C12.7989 9.30046 12.7533 9.26281 12.6808 9.20634C12.6084 9.14987 12.4855 9.06634 12.3124 8.95575C12.1443 8.84805 11.9696 8.75115 11.7893 8.66563L11.7597 8.65293C11.5424 8.55302 11.3165 8.47293 11.0848 8.41363L11.0552 8.40728C10.792 8.33525 10.5205 8.29869 10.2477 8.29857H10.2469C9.72419 8.27463 9.20755 8.41913 8.77307 8.71081L8.78224 8.70516C8.54193 8.86484 8.36308 9.1015 8.27508 9.37628C8.18708 9.65105 8.19517 9.94759 8.29801 10.2172L8.29518 10.2087C8.36012 10.364 8.45471 10.4953 8.5733 10.6005L8.57471 10.6012C8.68836 10.7078 8.80977 10.8101 8.93683 10.9054L8.94813 10.9132C9.09989 11.0176 9.27424 11.1158 9.45707 11.1976L9.47824 11.2061C9.71448 11.3162 9.90507 11.4014 10.05 11.4616C10.1949 11.5219 10.4157 11.6085 10.7121 11.7214C11.0462 11.8475 11.3015 11.9468 11.478 12.0193C11.6545 12.0918 11.894 12.2021 12.1966 12.3503C12.4515 12.47 12.6971 12.6085 12.9314 12.7647L12.9109 12.752C13.1298 12.9073 13.3204 13.0626 13.5018 13.2285L13.4975 13.2242C13.6931 13.395 13.8597 13.5927 13.9924 13.8136L13.9987 13.8249C14.1159 14.0317 14.2168 14.2725 14.2902 14.5245L14.2966 14.5485C14.3735 14.8061 14.4173 15.1026 14.4173 15.4089V15.4386V15.4372L14.4131 15.4336Z"/>
</mask>
<path d="M14.4131 15.4336L14.4138 15.4986C14.4149 16.3979 14.0781 17.2649 13.47 17.9275L13.4721 17.9247C12.8387 18.6223 11.9821 19.0776 11.0495 19.2122L11.0277 19.215V20.8809C11.0277 20.9582 10.9969 21.0324 10.9423 21.0871C10.8876 21.1417 10.8134 21.1725 10.7361 21.1725H10.7241H10.7248H9.4493C9.36927 21.1715 9.29278 21.1393 9.23619 21.0827C9.17959 21.0262 9.14739 20.9497 9.14648 20.8696V19.215C8.72111 19.1582 8.30314 19.0555 7.89989 18.9087L7.94154 18.9221C7.33919 18.7206 6.77402 18.4216 6.26859 18.0369L6.28271 18.0475C6.12833 17.9359 5.98012 17.8159 5.83871 17.6882L5.84365 17.6925C5.76507 17.6172 5.71001 17.5607 5.67848 17.523C5.62744 17.4723 5.59731 17.4043 5.59405 17.3324C5.59078 17.2605 5.61461 17.19 5.66083 17.1348L5.66012 17.1355L6.63354 15.8593C6.6594 15.826 6.69215 15.7986 6.72955 15.7791C6.76695 15.7596 6.80812 15.7485 6.85024 15.7463H6.85095C6.89281 15.7387 6.93597 15.7425 6.97578 15.7576C7.01559 15.7727 7.05053 15.7983 7.07683 15.8317L7.07754 15.8325L7.09589 15.8508C7.73412 16.4352 8.51523 16.8408 9.36036 17.0268L9.39283 17.0332C9.60318 17.0812 9.8446 17.1087 10.0924 17.1087L10.1361 17.1094C10.6239 17.1094 11.0757 16.9569 11.4477 16.6972L11.4399 16.7021C11.6275 16.5753 11.7795 16.4024 11.8813 16.2002C11.9832 15.9979 12.0314 15.7728 12.0215 15.5466V15.5494C12.0215 15.3637 11.9686 15.1908 11.8775 15.0447L11.8797 15.0489C11.7936 14.9032 11.6874 14.7703 11.5641 14.6543L11.5634 14.6536C11.3993 14.516 11.2189 14.3991 11.0262 14.3056L11.0107 14.2986C10.7585 14.1696 10.5514 14.0687 10.3895 13.9957C10.2277 13.9228 9.97565 13.8205 9.63354 13.6887C9.38789 13.588 9.19401 13.5092 9.05189 13.4522C8.90977 13.3953 8.71589 13.3118 8.47024 13.2016C8.2246 13.0915 8.02765 12.9939 7.87942 12.9087C7.73118 12.8235 7.55307 12.7118 7.34507 12.5734C7.16285 12.456 6.99241 12.3212 6.83612 12.171L6.83683 12.1717C6.69499 12.0282 6.56069 11.8774 6.43448 11.72L6.4253 11.7087C6.29163 11.5467 6.18072 11.3671 6.09565 11.175L6.09001 11.1602C6.00802 10.9653 5.94307 10.7636 5.89589 10.5574L5.89095 10.532C5.83694 10.2953 5.80995 10.0533 5.81048 9.81057V9.79363V9.77246C5.81048 8.8901 6.16412 8.08963 6.73801 7.50657L6.7373 7.50728C7.37697 6.84226 8.21289 6.39968 9.12248 6.24446L9.14789 6.24093V4.53622V4.5334C9.14789 4.45081 9.18248 4.37599 9.23754 4.32305C9.26475 4.2947 9.29741 4.27214 9.33356 4.25674C9.36971 4.24133 9.4086 4.23339 9.44789 4.2334H10.7375C10.8985 4.2334 11.0291 4.36399 11.0291 4.52493V4.53693V4.53622V6.19999C11.4173 6.24093 11.7717 6.31787 12.1112 6.42799L12.0738 6.4174C12.3978 6.51622 12.6702 6.62422 12.9321 6.74987L12.8954 6.73434C13.1269 6.8494 13.3239 6.96728 13.5102 7.09857L13.4961 7.08869C13.6844 7.2214 13.8072 7.31269 13.8646 7.36257C13.922 7.41246 13.9693 7.45646 14.0065 7.49457C14.0573 7.53829 14.0901 7.59921 14.0987 7.66566C14.1073 7.7321 14.091 7.79938 14.0531 7.85457L14.0538 7.85387L13.29 9.23457C13.2709 9.27701 13.2407 9.31348 13.2026 9.34009C13.1644 9.36669 13.1197 9.38243 13.0733 9.38563H13.0726C13.0278 9.39496 12.9814 9.39382 12.9371 9.38231C12.8928 9.3708 12.8517 9.34923 12.8171 9.31928H12.8178C12.7989 9.30046 12.7533 9.26281 12.6808 9.20634C12.6084 9.14987 12.4855 9.06634 12.3124 8.95575C12.1443 8.84805 11.9696 8.75115 11.7893 8.66563L11.7597 8.65293C11.5424 8.55302 11.3165 8.47293 11.0848 8.41363L11.0552 8.40728C10.792 8.33525 10.5205 8.29869 10.2477 8.29857H10.2469C9.72419 8.27463 9.20755 8.41913 8.77307 8.71081L8.78224 8.70516C8.54193 8.86484 8.36308 9.1015 8.27508 9.37628C8.18708 9.65105 8.19517 9.94759 8.29801 10.2172L8.29518 10.2087C8.36012 10.364 8.45471 10.4953 8.5733 10.6005L8.57471 10.6012C8.68836 10.7078 8.80977 10.8101 8.93683 10.9054L8.94813 10.9132C9.09989 11.0176 9.27424 11.1158 9.45707 11.1976L9.47824 11.2061C9.71448 11.3162 9.90507 11.4014 10.05 11.4616C10.1949 11.5219 10.4157 11.6085 10.7121 11.7214C11.0462 11.8475 11.3015 11.9468 11.478 12.0193C11.6545 12.0918 11.894 12.2021 12.1966 12.3503C12.4515 12.47 12.6971 12.6085 12.9314 12.7647L12.9109 12.752C13.1298 12.9073 13.3204 13.0626 13.5018 13.2285L13.4975 13.2242C13.6931 13.395 13.8597 13.5927 13.9924 13.8136L13.9987 13.8249C14.1159 14.0317 14.2168 14.2725 14.2902 14.5245L14.2966 14.5485C14.3735 14.8061 14.4173 15.1026 14.4173 15.4089V15.4386V15.4372L14.4131 15.4336Z" stroke="white" stroke-width="2" mask="url(#path-4-inside-1_357_4330)"/>
</svg>
