<svg width="24" height="23" viewBox="0 0 24 23" fill="none" xmlns="http://www.w3.org/2000/svg">
<path d="M6 23C6 23 4.5 23 4.5 21.5C4.5 20 6 15.5 12 15.5C18 15.5 19.5 20 19.5 21.5C19.5 23 18 23 18 23H6ZM12 14.075C12.9946 14.075 13.9484 13.6799 14.6517 12.9766C15.3549 12.2733 15.75 11.3195 15.75 10.325C15.75 9.33039 15.3549 8.37656 14.6517 7.6733C13.9484 6.97004 12.9946 6.57495 12 6.57495C11.0054 6.57495 10.0516 6.97004 9.34835 7.6733C8.64509 8.37656 8.25 9.33039 8.25 10.325C8.25 11.3195 8.64509 12.2733 9.34835 12.9766C10.0516 13.6799 11.0054 14.075 12 14.075Z" fill="white"/>
<path d="M3 0.5C2.20435 0.5 1.44129 0.816071 0.87868 1.37868C0.316071 1.94129 0 2.70435 0 3.5L0 17.75C0 18.3467 0.237053 18.919 0.65901 19.341C1.08097 19.7629 1.65326 20 2.25 20H3.2295C3.54314 18.8977 4.08826 17.8749 4.8285 17H1.5V3.5C1.5 3.10218 1.65804 2.72064 1.93934 2.43934C2.22064 2.15804 2.60218 2 3 2H21C21.3978 2 21.7794 2.15804 22.0607 2.43934C22.342 2.72064 22.5 3.10218 22.5 3.5V17H19.1715C20.0025 17.981 20.5065 19.0595 20.7705 20H21.75C22.3467 20 22.919 19.7629 23.341 19.341C23.7629 18.919 24 18.3467 24 17.75V3.5C24 2.70435 23.6839 1.94129 23.1213 1.37868C22.5587 0.816071 21.7956 0.5 21 0.5H3Z" fill="white"/>
</svg>
