<svg width="34" height="35" viewBox="0 0 34 35" fill="none" xmlns="http://www.w3.org/2000/svg">
<path d="M21.5605 16.1161C21.2245 16.1161 20.9024 15.9826 20.6648 15.7451C20.4273 15.5076 20.2938 15.1854 20.2938 14.8495C20.2938 14.5135 20.4273 14.1914 20.6648 13.9538C20.9024 13.7163 21.2245 13.5828 21.5605 13.5828C21.8964 13.5828 22.2186 13.7163 22.4561 13.9538C22.6936 14.1914 22.8271 14.5135 22.8271 14.8495C22.8271 15.1854 22.6936 15.5076 22.4561 15.7451C22.2186 15.9826 21.8964 16.1161 21.5605 16.1161ZM21.5605 21.1826C21.2245 21.1826 20.9024 21.0491 20.6648 20.8116C20.4273 20.574 20.2938 20.2519 20.2938 19.9159C20.2938 19.58 20.4273 19.2578 20.6648 19.0203C20.9024 18.7828 21.2245 18.6493 21.5605 18.6493C21.8964 18.6493 22.2186 18.7828 22.4561 19.0203C22.6936 19.2578 22.8271 19.58 22.8271 19.9159C22.8271 20.2519 22.6936 20.574 22.4561 20.8116C22.2186 21.0491 21.8964 21.1826 21.5605 21.1826ZM20.2938 24.9824C20.2938 25.3184 20.4273 25.6405 20.6648 25.8781C20.9024 26.1156 21.2245 26.249 21.5605 26.249C21.8964 26.249 22.2186 26.1156 22.4561 25.8781C22.6936 25.6405 22.8271 25.3184 22.8271 24.9824C22.8271 24.6465 22.6936 24.3243 22.4561 24.0868C22.2186 23.8493 21.8964 23.7158 21.5605 23.7158C21.2245 23.7158 20.9024 23.8493 20.6648 24.0868C20.4273 24.3243 20.2938 24.6465 20.2938 24.9824ZM18.605 14.8495C18.605 14.6255 18.516 14.4107 18.3577 14.2524C18.1993 14.094 17.9845 14.005 17.7606 14.005H11.8497C11.6257 14.005 11.411 14.094 11.2526 14.2524C11.0942 14.4107 11.0053 14.6255 11.0053 14.8495C11.0053 15.0734 11.0942 15.2882 11.2526 15.4465C11.411 15.6049 11.6257 15.6939 11.8497 15.6939H17.7606C17.9845 15.6939 18.1993 15.6049 18.3577 15.4465C18.516 15.2882 18.605 15.0734 18.605 14.8495ZM18.605 19.9159C18.605 19.692 18.516 19.4772 18.3577 19.3189C18.1993 19.1605 17.9845 19.0715 17.7606 19.0715H11.8497C11.6257 19.0715 11.411 19.1605 11.2526 19.3189C11.0942 19.4772 11.0053 19.692 11.0053 19.9159C11.0053 20.1399 11.0942 20.3547 11.2526 20.513C11.411 20.6714 11.6257 20.7604 11.8497 20.7604H17.7606C17.9845 20.7604 18.1993 20.6714 18.3577 20.513C18.516 20.3547 18.605 20.1399 18.605 19.9159ZM18.605 24.9824C18.605 24.7585 18.516 24.5437 18.3577 24.3853C18.1993 24.227 17.9845 24.138 17.7606 24.138H11.8497C11.6257 24.138 11.411 24.227 11.2526 24.3853C11.0942 24.5437 11.0053 24.7585 11.0053 24.9824C11.0053 25.2064 11.0942 25.4212 11.2526 25.5795C11.411 25.7379 11.6257 25.8268 11.8497 25.8268H17.7606C17.9845 25.8268 18.1993 25.7379 18.3577 25.5795C18.516 25.4212 18.605 25.2064 18.605 24.9824ZM14.3829 3.87207C13.8588 3.8718 13.3476 4.03408 12.9196 4.33655C12.4916 4.63902 12.1679 5.06678 11.9932 5.5609H9.31645C8.64459 5.5609 8.00025 5.82779 7.52517 6.30287C7.0501 6.77794 6.7832 7.42228 6.7832 8.09414V28.3601C6.7832 29.0319 7.0501 29.6763 7.52517 30.1514C8.00025 30.6264 8.64459 30.8933 9.31645 30.8933H24.5159C25.1878 30.8933 25.8321 30.6264 26.3072 30.1514C26.7823 29.6763 27.0491 29.0319 27.0491 28.3601V8.09414C27.0491 7.42228 26.7823 6.77794 26.3072 6.30287C25.8321 5.82779 25.1878 5.5609 24.5159 5.5609H21.8391C21.6644 5.06678 21.3408 4.63902 20.9128 4.33655C20.4848 4.03408 19.9735 3.8718 19.4494 3.87207H14.3829ZM13.5385 6.40531C13.5385 6.18136 13.6275 5.96658 13.7858 5.80822C13.9442 5.64986 14.159 5.5609 14.3829 5.5609H19.4494C19.6734 5.5609 19.8882 5.64986 20.0465 5.80822C20.2049 5.96658 20.2938 6.18136 20.2938 6.40531C20.2938 6.62927 20.2049 6.84405 20.0465 7.0024C19.8882 7.16076 19.6734 7.24973 19.4494 7.24973H14.3829C14.159 7.24973 13.9442 7.16076 13.7858 7.0024C13.6275 6.84405 13.5385 6.62927 13.5385 6.40531ZM9.31645 7.24973H11.9932C12.1679 7.74384 12.4916 8.17161 12.9196 8.47408C13.3476 8.77655 13.8588 8.93883 14.3829 8.93856H19.4494C19.9735 8.93883 20.4848 8.77655 20.9128 8.47408C21.3408 8.17161 21.6644 7.74384 21.8391 7.24973H24.5159C24.7399 7.24973 24.9546 7.33869 25.113 7.49705C25.2714 7.65541 25.3603 7.87019 25.3603 8.09414V28.3601C25.3603 28.584 25.2714 28.7988 25.113 28.9572C24.9546 29.1155 24.7399 29.2045 24.5159 29.2045H9.31645C9.09249 29.2045 8.87771 29.1155 8.71936 28.9572C8.561 28.7988 8.47203 28.584 8.47203 28.3601V8.09414C8.47203 7.87019 8.561 7.65541 8.71936 7.49705C8.87771 7.33869 9.09249 7.24973 9.31645 7.24973Z" fill="white"/>
</svg>
