<svg width="22" height="25" viewBox="0 0 22 25" fill="none" xmlns="http://www.w3.org/2000/svg">
<path d="M20.5973 22.1201C20.6547 20.1015 20.1593 18.1057 19.1645 16.3483C18.1697 14.5909 16.7136 13.1389 14.9533 12.1491L14.8983 12.1201C18.3253 10.1911 20.6023 6.57712 20.6023 2.43112C20.6023 2.32112 20.6003 2.21212 20.5973 2.10412V2.12012C20.7236 2.11745 20.848 2.08888 20.9629 2.03618C21.0777 1.98348 21.1804 1.90778 21.2648 1.81376C21.3492 1.71973 21.4133 1.60939 21.4533 1.48956C21.4933 1.36973 21.5083 1.24297 21.4973 1.11712V1.12012C21.5079 0.994588 21.4926 0.86823 21.4525 0.748823C21.4123 0.629416 21.3482 0.519488 21.264 0.425808C21.1798 0.332128 21.0773 0.256679 20.9628 0.204107C20.8483 0.151534 20.7243 0.122951 20.5983 0.120117H1.09834C0.971953 0.122652 0.847436 0.151121 0.732506 0.203759C0.617577 0.256397 0.514685 0.332081 0.430209 0.42612C0.345733 0.520159 0.281474 0.630549 0.241416 0.750444C0.201359 0.870339 0.186356 0.997185 0.197337 1.12312V1.12012C0.186793 1.24573 0.202089 1.37217 0.242283 1.49164C0.282477 1.61111 0.346717 1.72109 0.431042 1.81478C0.515367 1.90848 0.61799 1.98391 0.732584 2.03642C0.847177 2.08893 0.971313 2.11742 1.09734 2.12012H1.09834C1.04094 4.13881 1.53651 6.13479 2.53146 7.8922C3.5264 9.64962 4.98286 11.1016 6.74334 12.0911L6.79834 12.1201C3.37134 14.0491 1.09434 17.6631 1.09434 21.8091C1.09434 21.9181 1.09634 22.0271 1.09934 22.1361V22.1201C0.854426 22.1485 0.628445 22.2658 0.464225 22.4497C0.300005 22.6336 0.208959 22.8713 0.208342 23.1179C0.207726 23.3644 0.297582 23.6027 0.460881 23.7874C0.62418 23.9721 0.849572 24.0905 1.09434 24.1201H20.5983C20.8432 24.0917 21.0692 23.9745 21.2334 23.7906C21.3977 23.6066 21.4887 23.3689 21.4893 23.1223C21.4899 22.8758 21.4001 22.6376 21.2368 22.4529C21.0735 22.2681 20.8481 22.1497 20.6033 22.1201H20.5983H20.5973ZM2.89834 2.12012H18.7983C18.7983 7.12012 15.2983 11.1201 10.7983 11.1201C6.29834 11.1201 2.89834 7.12012 2.89834 2.12012Z" fill="white"/>
</svg>
