<svg width="19" height="19" viewBox="0 0 19 19" fill="none" xmlns="http://www.w3.org/2000/svg">
<path d="M1.35156 10.8219H7.35156C7.90156 10.8219 8.35156 10.3719 8.35156 9.8219V1.8219C8.35156 1.2719 7.90156 0.821899 7.35156 0.821899H1.35156C0.801562 0.821899 0.351562 1.2719 0.351562 1.8219V9.8219C0.351562 10.3719 0.801562 10.8219 1.35156 10.8219ZM1.35156 18.8219H7.35156C7.90156 18.8219 8.35156 18.3719 8.35156 17.8219V13.8219C8.35156 13.2719 7.90156 12.8219 7.35156 12.8219H1.35156C0.801562 12.8219 0.351562 13.2719 0.351562 13.8219V17.8219C0.351562 18.3719 0.801562 18.8219 1.35156 18.8219ZM11.3516 18.8219H17.3516C17.9016 18.8219 18.3516 18.3719 18.3516 17.8219V9.8219C18.3516 9.2719 17.9016 8.8219 17.3516 8.8219H11.3516C10.8016 8.8219 10.3516 9.2719 10.3516 9.8219V17.8219C10.3516 18.3719 10.8016 18.8219 11.3516 18.8219ZM10.3516 1.8219V5.8219C10.3516 6.3719 10.8016 6.8219 11.3516 6.8219H17.3516C17.9016 6.8219 18.3516 6.3719 18.3516 5.8219V1.8219C18.3516 1.2719 17.9016 0.821899 17.3516 0.821899H11.3516C10.8016 0.821899 10.3516 1.2719 10.3516 1.8219Z" fill="white"/>
</svg>
