<svg width="30" height="22" viewBox="0 0 30 22" fill="none" xmlns="http://www.w3.org/2000/svg">
<path fill-rule="evenodd" clip-rule="evenodd" d="M18.2287 8.66419C18.632 9.06744 19.1696 9.33627 19.7073 9.47069C20.5138 9.73952 21.1859 10.1428 21.858 10.8149C22.5301 11.3525 22.7989 12.2934 22.7989 13.0999C22.7989 14.0408 22.3956 15.1162 21.7236 15.7883C21.1859 16.3259 20.5138 16.7292 19.7073 16.8636V18.8798H18.2287V17.1324C17.4222 17.1324 16.6157 16.7292 15.9436 16.3259C15.406 15.9227 15.0027 15.5194 14.5995 14.9818L15.9436 13.5032C16.2125 13.9064 16.6157 14.3097 17.019 14.5785C17.4222 14.9818 18.0943 15.1162 18.632 15.1162C19.0352 15.1162 19.5729 14.9818 19.9761 14.5785C20.245 14.1753 20.3794 13.772 20.3794 13.3688C20.3794 12.9655 20.245 12.5623 19.9761 12.2934C19.5729 12.0246 19.0352 11.7558 18.632 11.6214C18.5183 11.5645 18.4019 11.5077 18.284 11.4501C17.5655 11.0991 16.7898 10.7201 16.2125 10.1428C15.6748 9.6051 15.406 8.7986 15.406 7.9921C15.2716 7.1856 15.6748 6.3791 16.2125 5.70702C16.7501 5.16935 17.4222 4.7661 18.0943 4.63169V2.74986H19.7073V4.63169C20.245 4.63169 20.7826 4.7661 21.1859 5.03494C21.5891 5.30377 21.9924 5.5726 22.3956 5.97585L21.1859 7.58885C20.7826 7.05119 20.1106 6.64794 19.3041 6.64794C18.9008 6.51352 18.4976 6.78235 18.0943 7.05119C17.8255 7.1856 17.6911 7.58885 17.6911 7.85769C17.6911 8.12652 17.8255 8.52977 18.2287 8.66419ZM8.14748 10.8149C8.14748 4.90052 12.9865 0.0615234 18.9008 0.0615234C24.8151 0.0615234 29.6541 4.90052 29.6541 10.8149C29.6541 16.7292 24.8151 21.5682 18.9008 21.5682C12.9865 21.5682 8.14748 16.7292 8.14748 10.8149ZM9.62606 10.8149C9.62606 15.9227 13.793 20.0896 18.9008 20.0896C24.0086 20.0896 28.1756 15.9227 28.1756 10.8149C28.1756 5.70702 24.0086 1.54011 18.9008 1.54011C13.793 1.54011 9.62606 5.70702 9.62606 10.8149ZM9.98957 1.26696C10.1823 1.45973 10.2906 1.72117 10.2906 1.99379C10.2906 2.2664 10.1823 2.52785 9.98957 2.72062C9.79681 2.91338 9.53536 3.02168 9.26274 3.02168H1.03961C0.766997 3.02168 0.505547 2.91338 0.31278 2.72062C0.120013 2.52785 0.0117188 2.2664 0.0117188 1.99379C0.0117188 1.72117 0.120013 1.45973 0.31278 1.26696C0.505547 1.07419 0.766997 0.965897 1.03961 0.965897H9.26274C9.53536 0.965897 9.79681 1.07419 9.98957 1.26696ZM6.03614 7.43431C5.84338 7.24154 5.58193 7.13325 5.30931 7.13325H1.03961C0.766997 7.13325 0.505547 7.24154 0.31278 7.43431C0.120013 7.62708 0.0117188 7.88852 0.0117188 8.16114C0.0117188 8.43375 0.120013 8.6952 0.31278 8.88797C0.505547 9.08074 0.766997 9.18903 1.03961 9.18903H5.30931C5.58193 9.18903 5.84338 9.08074 6.03614 8.88797C6.22891 8.6952 6.33721 8.43375 6.33721 8.16114C6.33721 7.88852 6.22891 7.62708 6.03614 7.43431ZM5.87801 13.6017C5.68524 13.4089 5.42379 13.3006 5.15118 13.3006H1.03961C0.766997 13.3006 0.505547 13.4089 0.31278 13.6017C0.120013 13.7944 0.0117188 14.0559 0.0117188 14.3285C0.0117188 14.6011 0.120013 14.8626 0.31278 15.0553C0.505547 15.2481 0.766997 15.3564 1.03961 15.3564H5.15118C5.42379 15.3564 5.68524 15.2481 5.87801 15.0553C6.07077 14.8626 6.17907 14.6011 6.17907 14.3285C6.17907 14.0559 6.07077 13.7944 5.87801 13.6017ZM9.04075 19.769C8.84798 19.5762 8.58653 19.4679 8.31392 19.4679H1.03961C0.766997 19.4679 0.505547 19.5762 0.31278 19.769C0.120013 19.9618 0.0117188 20.2232 0.0117188 20.4958C0.0117188 20.7685 0.120013 21.0299 0.31278 21.2227C0.505547 21.4154 0.766997 21.5237 1.03961 21.5237H8.31392C8.58653 21.5237 8.84798 21.4154 9.04075 21.2227C9.23352 21.0299 9.34181 20.7685 9.34181 20.4958C9.34181 20.2232 9.23352 19.9618 9.04075 19.769Z" fill="white"/>
</svg>
