<svg width="24" height="21" viewBox="0 0 24 21" fill="none" xmlns="http://www.w3.org/2000/svg">
<path d="M22.2763 20.2688H1.53977C1.13862 20.2688 0.791469 20.1921 0.498319 20.0388C0.205169 19.8855 0.0585938 19.7039 0.0585938 19.494V7.0977C0.0585938 7.08155 0.0817372 7.00085 0.128024 6.85558L2.76638 0.730046C2.81266 0.568635 2.96695 0.427401 3.22924 0.306343C3.49154 0.185285 3.77697 0.124756 4.08555 0.124756H19.8694C20.1934 0.124756 20.4827 0.185285 20.7373 0.306343C20.9918 0.427401 21.15 0.568635 21.2117 0.730046L23.7112 6.85558C23.742 6.95243 23.7575 7.03313 23.7575 7.0977V19.494C23.7575 19.7039 23.6109 19.8855 23.3177 20.0388C23.0246 20.1921 22.6774 20.2688 22.2763 20.2688ZM7.46449 1.6743H7.11734C6.91677 2.06168 6.56576 2.41679 6.06432 2.73961C5.56287 3.06243 5.04215 3.22384 4.50213 3.22384H3.18296L2.58123 4.77338H4.50213C5.28901 4.77338 5.78659 4.84198 5.99489 4.97918C6.20318 5.11638 6.26875 5.4271 6.19161 5.91133L6.12217 6.32292H7.46449V1.6743ZM7.46449 7.87247H1.53977V9.03462C1.53977 9.14761 1.61306 9.24042 1.75964 9.31306C1.90621 9.38569 2.07979 9.42201 2.28036 9.42201H7.46449V7.87247ZM7.46449 10.9716H1.53977V12.1337C1.53977 12.2467 1.61306 12.3395 1.75964 12.4121C1.90621 12.4848 2.07979 12.5211 2.28036 12.5211H7.46449V10.9716ZM7.46449 14.0706H1.53977V15.2328C1.53977 15.3458 1.61306 15.4386 1.75964 15.5112C1.90621 15.5839 2.07979 15.6202 2.28036 15.6202H7.46449V14.0706ZM7.46449 17.1697H1.53977V18.3319C1.53977 18.4449 1.61306 18.5377 1.75964 18.6103C1.90621 18.6829 2.07979 18.7193 2.28036 18.7193H7.46449V17.1697ZM14.8704 13.2959C14.8704 13.086 14.7971 12.9044 14.6505 12.7511C14.504 12.5978 14.3304 12.5211 14.1298 12.5211H10.4269V10.9716H14.1298C14.4384 10.9716 14.6621 10.8263 14.801 10.5357C14.7084 10.2129 14.531 9.94659 14.2687 9.73676C14.0064 9.52693 13.7132 9.42201 13.3892 9.42201V8.64724C13.3892 8.4374 13.3159 8.25582 13.1694 8.10248C13.0228 7.94914 12.8492 7.87247 12.6486 7.87247C12.448 7.87247 12.2745 7.94914 12.1279 8.10248C11.9813 8.25582 11.908 8.4374 11.908 8.64724V9.42201H10.4269C10.0257 9.42201 9.67855 9.57535 9.3854 9.88203C9.09225 10.1887 8.94567 10.5519 8.94567 10.9716V13.2959C8.94567 13.5057 9.01896 13.6873 9.16554 13.8406C9.31211 13.994 9.48569 14.0706 9.68626 14.0706H13.3892V15.6202H9.68626C9.37768 15.6202 9.15396 15.7735 9.0151 16.0802C9.12311 16.403 9.3044 16.6653 9.55898 16.8671C9.81355 17.0688 10.1028 17.1697 10.4269 17.1697V17.9445C10.4269 18.1543 10.5001 18.3359 10.6467 18.4893C10.7933 18.6426 10.9669 18.7193 11.1674 18.7193C11.368 18.7193 11.5416 18.6426 11.6882 18.4893C11.8347 18.3359 11.908 18.1543 11.908 17.9445V17.1697H13.3892C13.8058 17.1697 14.1568 17.0204 14.4422 16.7218C14.7277 16.4232 14.8704 16.056 14.8704 15.6202V13.2959ZM20.6563 3.22384H19.3139C18.7739 3.22384 18.2686 3.06646 17.798 2.75171C17.3275 2.43696 16.9996 2.07782 16.8144 1.6743H16.3516V6.32292H17.717L17.6707 5.91133C17.5936 5.44324 17.7556 5.13656 18.1568 4.99129C18.5579 4.84602 19.1905 4.77338 20.0545 4.77338H21.2348L20.6563 3.22384ZM22.2763 7.87247H16.3516V9.42201H21.5357C21.7363 9.42201 21.9099 9.38569 22.0564 9.31306C22.203 9.24042 22.2763 9.14761 22.2763 9.03462V7.87247ZM22.2763 10.9716H16.3516V12.5211H21.5357C21.7363 12.5211 21.9099 12.4848 22.0564 12.4121C22.203 12.3395 22.2763 12.2467 22.2763 12.1337V10.9716ZM22.2763 14.0706H16.3516V15.6202H21.5357C21.7363 15.6202 21.9099 15.5839 22.0564 15.5112C22.203 15.4386 22.2763 15.3458 22.2763 15.2328V14.0706ZM22.2763 17.1697H16.3516V18.7193H21.5357C21.7363 18.7193 21.9099 18.6829 22.0564 18.6103C22.203 18.5377 22.2763 18.4449 22.2763 18.3319V17.1697Z" fill="white"/>
</svg>
