<svg width="27" height="28" viewBox="0 0 27 28" fill="none" xmlns="http://www.w3.org/2000/svg">
<path d="M1.125 9.84788V5.18363C1.12522 4.87027 1.21269 4.56316 1.37761 4.2967C1.54253 4.03025 1.77838 3.81498 2.05875 3.67501L5.99625 1.70626C6.23033 1.5894 6.48837 1.52856 6.75 1.52856C7.01163 1.52856 7.26967 1.5894 7.50375 1.70626L11.4412 3.67501C11.7216 3.81498 11.9575 4.03025 12.1224 4.2967C12.2873 4.56316 12.3748 4.87027 12.375 5.18363V9.84788C12.375 10.1614 12.2876 10.4688 12.1227 10.7355C11.9578 11.0021 11.7218 11.2176 11.4412 11.3576L7.50375 13.3264C7.26967 13.4432 7.01163 13.5041 6.75 13.5041C6.48837 13.5041 6.23033 13.4432 5.99625 13.3264L2.05875 11.3576C1.77821 11.2176 1.54224 11.0021 1.37731 10.7355C1.21238 10.4688 1.12501 10.1614 1.125 9.84788ZM2.87212 5.29613C2.80565 5.42939 2.79473 5.58357 2.84176 5.72486C2.88879 5.86616 2.98993 5.98304 3.123 6.04988L6.1875 7.58326V10.8908C6.1875 11.0399 6.24676 11.183 6.35225 11.2885C6.45774 11.394 6.60082 11.4533 6.75 11.4533C6.89918 11.4533 7.04226 11.394 7.14775 11.2885C7.25324 11.183 7.3125 11.0399 7.3125 10.8908V7.58326L10.377 6.04988C10.4436 6.01714 10.5031 5.97153 10.552 5.91569C10.6009 5.85985 10.6383 5.79488 10.662 5.72452C10.6857 5.65417 10.6952 5.57982 10.69 5.50577C10.6848 5.43171 10.665 5.35942 10.6318 5.29305C10.5985 5.22668 10.5525 5.16755 10.4962 5.11907C10.44 5.07059 10.3748 5.03372 10.3042 5.01058C10.2337 4.98744 10.1593 4.97849 10.0853 4.98425C10.0112 4.99001 9.93911 5.01036 9.873 5.04413L6.75 6.60563L3.627 5.04413C3.56089 5.01108 3.48892 4.99138 3.4152 4.98616C3.34148 4.98094 3.26745 4.9903 3.19734 5.0137C3.12724 5.0371 3.06243 5.07409 3.00663 5.12255C2.95083 5.17102 2.90512 5.23 2.87212 5.29613ZM12.9971 3.57826C13.3189 4.04063 13.5 4.59863 13.5 5.18363V9.84788C13.5 10.3702 13.3545 10.8822 13.0799 11.3265C12.8053 11.7708 12.4124 12.1298 11.9452 12.3634L8.00775 14.3321C7.61723 14.5274 7.18661 14.629 6.75 14.629C6.31339 14.629 5.88277 14.5274 5.49225 14.3321L2.25 12.711V19.6095C2.25005 20.2399 2.48533 20.8476 2.90979 21.3137C3.33425 21.7797 3.91736 22.0707 4.545 22.1295C4.67455 22.9182 5.07983 23.6354 5.68867 24.1533C6.2975 24.6711 7.07037 24.9561 7.86967 24.9575C8.66896 24.9588 9.4428 24.6764 10.0534 24.1606C10.664 23.6448 11.0717 22.929 11.2039 22.1408H13.5461C13.6777 22.9285 14.0844 23.6441 14.694 24.1603C15.3035 24.6764 16.0763 24.9597 16.875 24.9597C17.6737 24.9597 18.4465 24.6764 19.056 24.1603C19.6656 23.6441 20.0723 22.9285 20.2039 22.1408H22.2188C22.5512 22.1408 22.8803 22.0753 23.1874 21.9481C23.4945 21.8209 23.7736 21.6344 24.0086 21.3994C24.2437 21.1643 24.4301 20.8853 24.5573 20.5782C24.6845 20.2711 24.75 19.9419 24.75 19.6095V13.5199C24.7498 13.1451 24.6664 12.7751 24.5059 12.4365L22.5945 8.40113C22.3894 7.96806 22.0656 7.6021 21.6607 7.34579C21.2559 7.08948 20.7866 6.95336 20.3074 6.95326H18.5625V6.10951C18.5625 5.43818 18.2958 4.79434 17.8211 4.31964C17.3464 3.84494 16.7026 3.57826 16.0312 3.57826H12.9971ZM21.6562 17.6408H23.0625V19.3283H21.6562C21.4325 19.3283 21.2179 19.2394 21.0596 19.0811C20.9014 18.9229 20.8125 18.7083 20.8125 18.4845C20.8125 18.2607 20.9014 18.0461 21.0596 17.8879C21.2179 17.7297 21.4325 17.6408 21.6562 17.6408ZM21.0701 9.12338L22.7059 12.5783H18.5625V8.64076H20.3062C20.4662 8.64051 20.623 8.68575 20.7582 8.7712C20.8935 8.85665 21.0017 8.97879 21.0701 9.12338ZM9.5625 21.5783C9.5625 21.7999 9.51885 22.0193 9.43405 22.224C9.34924 22.4288 9.22494 22.6148 9.06824 22.7715C8.91154 22.9282 8.72552 23.0525 8.52078 23.1373C8.31604 23.2221 8.09661 23.2658 7.875 23.2658C7.65339 23.2658 7.43396 23.2221 7.22922 23.1373C7.02448 23.0525 6.83846 22.9282 6.68176 22.7715C6.52506 22.6148 6.40076 22.4288 6.31595 22.224C6.23115 22.0193 6.1875 21.7999 6.1875 21.5783C6.1875 21.1307 6.36529 20.7015 6.68176 20.385C6.99822 20.0685 7.42745 19.8908 7.875 19.8908C8.32255 19.8908 8.75178 20.0685 9.06824 20.385C9.38471 20.7015 9.5625 21.1307 9.5625 21.5783ZM16.875 19.8908C17.3226 19.8908 17.7518 20.0685 18.0682 20.385C18.3847 20.7015 18.5625 21.1307 18.5625 21.5783C18.5625 22.0258 18.3847 22.455 18.0682 22.7715C17.7518 23.088 17.3226 23.2658 16.875 23.2658C16.4274 23.2658 15.9982 23.088 15.6818 22.7715C15.3653 22.455 15.1875 22.0258 15.1875 21.5783C15.1875 21.1307 15.3653 20.7015 15.6818 20.385C15.9982 20.0685 16.4274 19.8908 16.875 19.8908Z" fill="white"/>
</svg>
