<svg width="24" height="25" viewBox="0 0 24 25" fill="none" xmlns="http://www.w3.org/2000/svg">
<path d="M13 11.1787C13.2652 11.1787 13.5196 11.2841 13.7071 11.4716C13.8946 11.6591 14 11.9135 14 12.1787C14 12.4439 13.8946 12.6983 13.7071 12.8858C13.5196 13.0734 13.2652 13.1787 13 13.1787C12.7348 13.1787 12.4804 13.0734 12.2929 12.8858C12.1054 12.6983 12 12.4439 12 12.1787C12 11.9135 12.1054 11.6591 12.2929 11.4716C12.4804 11.2841 12.7348 11.1787 13 11.1787ZM7.86 6.42871C8.51512 5.71929 9.30999 5.15316 10.1946 4.76593C11.0792 4.3787 12.0344 4.17877 13 4.17871C16.5 4.17871 19.44 6.78871 19.93 10.1787H22V12.1787H16C16 11.3831 15.6839 10.62 15.1213 10.0574C14.5587 9.49478 13.7956 9.17871 13 9.17871C12.2044 9.17871 11.4413 9.49478 10.8787 10.0574C10.3161 10.62 10 11.3831 10 12.1787H2V10.1787H2.05C2.25 7.90871 3.14 5.83871 4.5 4.17871L7.86 6.42871ZM6.73 8.06871L5.06 6.94871C4.53 7.92871 4.18 9.01871 4.06 10.1787H6.07C6.18 9.42871 6.4 8.71871 6.73 8.06871ZM7.4 15.5787L6 14.1787H11.79C12.03 14.5987 12.5 14.8787 13 14.8787C13.5 14.8787 13.97 14.5987 14.21 14.1787H20V15.5787C18.39 14.5987 18.46 15.9287 18.46 15.9287V17.8887L16.5 19.8487C16 18.0987 15.1 19.0787 15.1 19.0787L13.7 20.4787H10.9C11.88 18.8687 10.55 18.9387 10.55 18.9387H8.59L6.63 16.9787C8.38 16.4887 7.4 15.5787 7.4 15.5787Z" fill="white"/>
</svg>
