<svg width="24" height="25" viewBox="0 0 24 25" fill="none" xmlns="http://www.w3.org/2000/svg">
<path d="M13 21.3033V23.3033H11V21.3033H3C2.73478 21.3033 2.48043 21.198 2.29289 21.0105C2.10536 20.8229 2 20.5686 2 20.3033V6.30334H22V20.3033C22 20.5686 21.8946 20.8229 21.7071 21.0105C21.5196 21.198 21.2652 21.3033 21 21.3033H13ZM4 19.3033H20V8.30334H4V19.3033ZM13 10.3033H18V12.3033H13V10.3033ZM13 14.3033H18V16.3033H13V14.3033ZM9 10.3033V13.3033H12C12 13.8967 11.8241 14.4767 11.4944 14.9701C11.1648 15.4634 10.6962 15.8479 10.1481 16.075C9.59987 16.302 8.99667 16.3615 8.41473 16.2457C7.83279 16.1299 7.29824 15.8442 6.87868 15.4247C6.45912 15.0051 6.1734 14.4706 6.05764 13.8886C5.94189 13.3067 6.0013 12.7035 6.22836 12.1553C6.45542 11.6071 6.83994 11.1386 7.33329 10.8089C7.82664 10.4793 8.40666 10.3033 9 10.3033ZM2 3.30334H22V5.30334H2V3.30334Z" fill="white"/>
</svg>
