<svg width="28" height="29" viewBox="0 0 28 29" fill="none" xmlns="http://www.w3.org/2000/svg">
<path d="M5.5999 1.50839C6.1095 1.50839 6.5883 1.64419 6.9999 1.88359C7.42555 1.63784 7.90839 1.50847 8.39988 1.50846C8.89138 1.50846 9.37422 1.63783 9.79987 1.88357C10.2255 2.12932 10.579 2.48277 10.8247 2.90842C11.0705 3.33406 11.1999 3.8169 11.1999 4.30839V5.70839H11.8999C12.0856 5.70839 12.2636 5.78214 12.3949 5.91342C12.5262 6.04469 12.5999 6.22274 12.5999 6.40839V12.7084C12.5999 13.451 12.3049 14.1632 11.7798 14.6883C11.2547 15.2134 10.5425 15.5084 9.7999 15.5084H4.1999C3.4573 15.5084 2.74511 15.2134 2.22 14.6883C1.6949 14.1632 1.3999 13.451 1.3999 12.7084V6.40839C1.3999 6.22274 1.47365 6.04469 1.60493 5.91342C1.7362 5.78214 1.91425 5.70839 2.0999 5.70839H2.7999V4.30839C2.7999 3.56579 3.0949 2.8536 3.62 2.32849C4.14511 1.80339 4.8573 1.50839 5.5999 1.50839ZM4.1999 5.70839H6.9999V4.30839C6.9999 3.93709 6.8524 3.58099 6.58985 3.31844C6.3273 3.05589 5.97121 2.90839 5.5999 2.90839C5.2286 2.90839 4.8725 3.05589 4.60995 3.31844C4.3474 3.58099 4.1999 3.93709 4.1999 4.30839V5.70839ZM8.3999 4.30839V5.70839H9.7999V4.30839C9.80006 4.09464 9.75128 3.88369 9.65728 3.69171C9.56329 3.49973 9.42658 3.33182 9.25764 3.20086C9.0887 3.0699 8.89202 2.97936 8.68267 2.93619C8.47332 2.89302 8.25687 2.89835 8.0499 2.95179C8.2739 3.35359 8.3999 3.81699 8.3999 4.30839ZM12.5999 4.42739V4.30839H17.1499C18.5037 4.30839 19.5999 5.40599 19.5999 6.75839V8.50839H20.8347C21.2249 8.50841 21.6074 8.61713 21.9392 8.82238C22.2711 9.02763 22.5392 9.32128 22.7135 9.67039L24.9787 14.1994C25.1246 14.4906 25.2008 14.8117 25.2013 15.1374V20.4084C25.2013 20.9653 24.9801 21.4995 24.5862 21.8933C24.1924 22.2871 23.6583 22.5084 23.1013 22.5084H20.9313C20.7706 23.2996 20.3414 24.0109 19.7163 24.5219C19.0912 25.0328 18.3087 25.3119 17.5013 25.3119C16.694 25.3119 15.9114 25.0328 15.2863 24.5219C14.6612 24.0109 14.232 23.2996 14.0713 22.5084H12.5313C12.3706 23.2996 11.9414 24.0109 11.3163 24.5219C10.6912 25.0328 9.90865 25.3119 9.1013 25.3119C8.29395 25.3119 7.51143 25.0328 6.88632 24.5219C6.26121 24.0109 5.83196 23.2996 5.6713 22.5084H5.3087C4.65892 22.5084 4.03575 22.2503 3.57629 21.7908C3.11683 21.3313 2.8587 20.7082 2.8587 20.0584V16.69C3.2801 16.8314 3.7309 16.9084 4.1999 16.9084H4.2587V20.0584C4.2587 20.638 4.7291 21.1084 5.3087 21.1084H5.6713C5.83196 20.3172 6.26121 19.6059 6.88632 19.0949C7.51143 18.584 8.29395 18.3049 9.1013 18.3049C9.90865 18.3049 10.6912 18.584 11.3163 19.0949C11.9414 19.6059 12.3706 20.3172 12.5313 21.1084H14.0713C14.2568 20.1989 14.796 19.4003 15.5702 18.8884C16.3445 18.3764 17.2904 18.193 18.1999 18.3784V6.75839C18.1999 6.47992 18.0893 6.21284 17.8924 6.01593C17.6954 5.81902 17.4284 5.70839 17.1499 5.70839H13.8809C13.7762 5.41299 13.6068 5.1447 13.3852 4.92308C13.1636 4.70147 12.8953 4.53212 12.5999 4.42739ZM19.5999 19.0084C20.2719 19.5124 20.7577 20.2544 20.9299 21.1084H23.0999C23.2856 21.1084 23.4636 21.0346 23.5949 20.9034C23.7262 20.7721 23.7999 20.594 23.7999 20.4084V15.5084H19.5999V19.0084ZM19.5999 14.1084H23.3687L21.4619 10.2948C21.4037 10.1787 21.3144 10.081 21.2038 10.0128C21.0933 9.94454 20.966 9.9084 20.8361 9.90839H19.5999V14.1084ZM9.0999 19.7084C8.54295 19.7084 8.0088 19.9296 7.61498 20.3235C7.22115 20.7173 6.9999 21.2514 6.9999 21.8084C6.9999 22.3653 7.22115 22.8995 7.61498 23.2933C8.0088 23.6871 8.54295 23.9084 9.0999 23.9084C9.65686 23.9084 10.191 23.6871 10.5848 23.2933C10.9787 22.8995 11.1999 22.3653 11.1999 21.8084C11.1999 21.2514 10.9787 20.7173 10.5848 20.3235C10.191 19.9296 9.65686 19.7084 9.0999 19.7084ZM15.3999 21.8084C15.3999 22.0842 15.4542 22.3572 15.5598 22.612C15.6653 22.8668 15.82 23.0983 16.015 23.2933C16.21 23.4883 16.4415 23.643 16.6963 23.7485C16.9511 23.8541 17.2241 23.9084 17.4999 23.9084C17.7757 23.9084 18.0488 23.8541 18.3035 23.7485C18.5583 23.643 18.7898 23.4883 18.9848 23.2933C19.1798 23.0983 19.3345 22.8668 19.4401 22.612C19.5456 22.3572 19.5999 22.0842 19.5999 21.8084C19.5999 21.2514 19.3787 20.7173 18.9848 20.3235C18.591 19.9296 18.0569 19.7084 17.4999 19.7084C16.9429 19.7084 16.4088 19.9296 16.015 20.3235C15.6212 20.7173 15.3999 21.2514 15.3999 21.8084Z" fill="white"/>
</svg>
