<svg width="30" height="21" viewBox="0 0 30 21" fill="none" xmlns="http://www.w3.org/2000/svg">
<path d="M14.5935 0.758301C12.0667 0.758301 10.0183 3.14986 10.0183 6.1C10.0183 8.14601 11.0035 9.92297 12.4504 10.8202L10.7726 11.5978L6.30786 13.6685C5.87654 13.8842 5.66127 14.2499 5.66127 14.7675V19.6846C5.69675 20.2994 6.06562 20.8724 6.66367 20.8821H22.5476C23.2303 20.8227 23.5757 20.2728 23.5825 19.6846V14.7675C23.5825 14.2499 23.3672 13.8842 22.9359 13.6685L18.6328 11.5978L16.8445 10.7505C18.232 9.83311 19.1688 8.09457 19.1688 6.10002C19.1688 3.14986 17.1204 0.758301 14.5935 0.758301ZM7.21362 2.63673C6.12621 2.67803 5.26441 3.14856 4.60966 3.8983C3.88542 4.80099 3.53235 5.87273 3.52552 6.93889C3.57 8.51544 4.27541 10.0079 5.53122 10.7886L0.517458 13.1185C0.17238 13.2479 0 13.5498 0 14.0243V17.9706C0.0269451 18.494 0.298694 18.9339 0.80823 18.9414H4.14052V14.7675C4.19565 13.6516 4.71969 12.7496 5.66127 12.3094L8.99266 10.7245C9.25145 10.5736 9.49955 10.3683 9.73678 10.1096C8.36321 7.99023 8.17247 5.45185 9.0577 3.21923C8.48195 2.86686 7.8349 2.64042 7.21362 2.63673ZM22.0942 2.63673C21.3831 2.65162 20.7259 2.91349 20.1861 3.28331C21.0471 5.53616 20.8096 8.07611 19.5385 10.0445C19.8189 10.368 20.1108 10.6161 20.4127 10.7887L23.615 12.3094C24.5905 12.8444 25.0935 13.7544 25.1032 14.7675V18.9415H28.5321C29.096 18.8928 29.3364 18.443 29.3413 17.9707V14.0243C29.3413 13.593 29.1689 13.2911 28.8238 13.1185L23.8742 10.7561C25.1578 9.80966 25.8023 8.39121 25.8148 6.93889C25.7807 5.7894 25.4295 4.72206 24.7307 3.8983C24.0004 3.10611 23.0947 2.64511 22.0942 2.63673Z" fill="white"/>
</svg>
