<svg width="28" height="25" viewBox="0 0 28 25" fill="none" xmlns="http://www.w3.org/2000/svg">
<path d="M8.94209 8.35694H14.2754V4.35694L20.9421 11.0236H8.94209V8.35694Z" fill="white"/>
<path d="M14.2754 20.3569L7.60875 13.6903H19.6088V16.3569H14.2754V20.3569Z" fill="white"/>
<path fill-rule="evenodd" clip-rule="evenodd" d="M2.27669 0.356934H26.2767C26.6303 0.356934 26.9695 0.497409 27.2195 0.747458C27.4696 0.997506 27.61 1.33664 27.61 1.69027V23.0236C27.61 23.3772 27.4696 23.7164 27.2195 23.9664C26.9695 24.2165 26.6303 24.3569 26.2767 24.3569H2.27669C1.92307 24.3569 1.58393 24.2165 1.33388 23.9664C1.08384 23.7164 0.943359 23.3772 0.943359 23.0236V1.69027C0.943359 1.33664 1.08384 0.997506 1.33388 0.747458C1.58393 0.497409 1.92307 0.356934 2.27669 0.356934ZM2.27669 1.4799H26.2767C26.3325 1.4799 26.386 1.50206 26.4255 1.54151C26.4649 1.58096 26.4871 1.63447 26.4871 1.69027V23.0236C26.4871 23.0794 26.4649 23.1329 26.4255 23.1724C26.386 23.2118 26.3325 23.234 26.2767 23.234H2.27669C2.22089 23.234 2.16739 23.2118 2.12794 23.1724C2.08849 23.1329 2.06632 23.0794 2.06632 23.0236V1.69027C2.06632 1.63447 2.08849 1.58096 2.12794 1.54151C2.16739 1.50206 2.2209 1.4799 2.27669 1.4799Z" fill="white"/>
</svg>
