<svg width="25" height="25" viewBox="0 0 25 25" fill="none" xmlns="http://www.w3.org/2000/svg">
<path d="M5.57397 11.6809L11.8823 5.37348L9.81422 3.30538L6.92301 6.19659C6.88854 6.23114 6.84758 6.25854 6.8025 6.27724C6.75742 6.29594 6.70909 6.30557 6.66028 6.30557C6.61147 6.30557 6.56315 6.29594 6.51806 6.27724C6.47298 6.25854 6.43203 6.23114 6.39755 6.19659L5.87209 5.67113C5.72678 5.52582 5.72678 5.29051 5.87209 5.14567L8.7633 2.25446L7.18645 0.677142C6.60567 0.0963693 5.66444 0.0963693 5.08366 0.677142L0.878571 4.88224C0.298267 5.46301 0.297798 6.40424 0.878571 6.98502L5.57397 11.6809ZM23.7832 6.20597C24.6626 5.3266 24.6621 3.90116 23.7832 3.02179L21.6622 0.900732C20.7828 0.0213704 19.3569 0.0213704 18.4771 0.900732L16.3199 3.05742L21.6261 8.36359L23.7832 6.20597ZM15.2591 4.11865L1.33747 18.0384L0.458108 23.0746C0.339516 23.7538 0.93107 24.3454 1.61075 24.2259L6.64739 23.3427L20.5653 9.42436L15.2591 4.11865ZM24.0073 17.498L22.4304 15.9211L19.5392 18.8123C19.3939 18.9577 19.1586 18.9577 19.0138 18.8123L18.4883 18.2869C18.3435 18.1416 18.3435 17.9063 18.4883 17.7614L21.3795 14.8702L19.3105 12.8012L13.0021 19.1086L17.6994 23.8054C18.2802 24.3862 19.2214 24.3862 19.8022 23.8054L24.0073 19.6008C24.5881 19.02 24.5881 18.0788 24.0073 17.498Z" fill="white"/>
</svg>
