<svg width="19" height="20" viewBox="0 0 19 20" fill="none" xmlns="http://www.w3.org/2000/svg">
<path d="M17.7582 10.9602L10.9688 14.3549C10.4899 14.5944 9.92111 14.7141 9.26254 14.7141C8.60396 14.7141 8.03519 14.5944 7.55622 14.3549L0.766893 10.9602C0.299902 10.7207 0.0664062 10.4364 0.0664062 10.1071C0.0664062 9.77778 0.299902 9.4934 0.766893 9.25391L2.52709 8.39178L3.78437 9.02042L1.21592 10.1161L9.26254 13.5646L17.3091 10.1161L14.7407 9.02042L15.998 8.39178L17.7582 9.25391C18.2252 9.4934 18.4587 9.77778 18.4587 10.1071C18.4587 10.4364 18.2252 10.7207 17.7582 10.9602ZM17.7582 6.36216L10.9688 9.75683C10.4899 9.99631 9.92111 10.1161 9.26254 10.1161C8.60396 10.1161 8.03519 9.99631 7.55622 9.75683L0.766893 6.36216C0.299902 6.12268 0.0664062 5.83829 0.0664062 5.50901C0.0664062 5.17972 0.299902 4.89533 0.766893 4.65585L7.55622 1.26118C8.03519 1.03368 8.60396 0.919922 9.26254 0.919922C9.92111 0.919922 10.4899 1.03368 10.9688 1.26118L17.7582 4.65585C18.2252 4.89533 18.4587 5.17972 18.4587 5.50901C18.4587 5.83829 18.2252 6.12268 17.7582 6.36216ZM0.766893 13.8699L2.52709 12.9898L3.78437 13.6185L1.21592 14.7141L9.26254 18.1627L17.3091 14.7141L14.7407 13.6185L15.998 12.9898L17.7582 13.8699C18.2252 14.0974 18.4587 14.3788 18.4587 14.7141C18.4587 15.0494 18.2252 15.3308 17.7582 15.5583L10.9688 18.953C10.4899 19.1924 9.92111 19.3122 9.26254 19.3122C8.60396 19.3122 8.03519 19.1924 7.55622 18.953L0.766893 15.5583C0.299902 15.3308 0.0664062 15.0494 0.0664062 14.7141C0.0664062 14.3788 0.299902 14.0974 0.766893 13.8699Z" fill="white"/>
</svg>
