<svg width="24" height="24" viewBox="0 0 24 24" fill="none" xmlns="http://www.w3.org/2000/svg">
<path d="M12.4541 23.1586C9.4967 23.1561 6.65325 22.0323 4.51122 20.0193C2.36918 18.0063 1.09223 15.258 0.944164 12.3422C0.796102 9.42636 1.78825 6.56578 3.71562 4.35144C5.643 2.1371 8.35834 0.738193 11.3007 0.443726V5.04386C10.0495 5.25281 8.88078 5.79764 7.92244 6.61866C6.96409 7.43969 6.25311 8.50524 5.86739 9.69861C5.48166 10.892 5.43607 12.1671 5.7356 13.3844C6.03513 14.6016 6.66823 15.714 7.56555 16.5997C8.46287 17.4854 9.5898 18.1102 10.8229 18.4057C12.056 18.7012 13.3477 18.656 14.5565 18.2751C15.7653 17.8941 16.8446 17.1921 17.6761 16.2459C18.5077 15.2997 19.0594 14.1459 19.2709 12.9108H23.9296C23.64 15.7179 22.3063 18.3194 20.1865 20.2122C18.0667 22.105 15.3124 23.1548 12.4541 23.1586Z" fill="#DC6470"/>
<path d="M23.9287 10.6334H19.2688C19.0294 9.23661 18.3555 7.94806 17.3406 6.94646C16.3258 5.94486 15.0204 5.27987 13.6055 5.04374V0.443604C16.2507 0.710699 18.7218 1.8699 20.6023 3.72583C22.4828 5.58176 23.6576 8.02093 23.9287 10.6322V10.6334Z" fill="#6E768C"/>
</svg>
