<svg width="24" height="24" viewBox="0 0 24 24" fill="none" xmlns="http://www.w3.org/2000/svg">
<path d="M12.4502 23.5923C9.49279 23.5898 6.64934 22.4664 4.50731 20.4544C2.36528 18.4423 1.08832 15.6952 0.940258 12.7806C0.792195 9.86605 1.78434 7.00672 3.71172 4.79334C5.63909 2.57997 8.35443 1.18167 11.2968 0.887329V5.48546C10.0456 5.69432 8.87688 6.2389 7.91853 7.05957C6.96018 7.88024 6.24921 8.94533 5.86348 10.1382C5.47776 11.331 5.43216 12.6056 5.73169 13.8223C6.03122 15.039 6.66432 16.1509 7.56164 17.0362C8.45896 17.9215 9.58589 18.5461 10.819 18.8415C12.0521 19.1369 13.3438 19.0917 14.5526 18.7109C15.7614 18.3301 16.8407 17.6284 17.6722 16.6826C18.5038 15.7369 19.0555 14.5835 19.267 13.3489H23.9257C23.636 16.1549 22.3024 18.7552 20.1826 20.6472C18.0628 22.5392 15.3085 23.5885 12.4502 23.5923Z" fill="#6E768C"/>
<path d="M23.9248 11.0725H19.2649C19.0254 9.67638 18.3516 8.38839 17.3367 7.38723C16.3219 6.38607 15.0165 5.72137 13.6016 5.48534V0.887207C16.2468 1.15419 18.7179 2.31288 20.5984 4.168C22.4788 6.02313 23.6537 8.46123 23.9248 11.0714V11.0725Z" fill="#8EC957"/>
</svg>
