<svg width="28" height="27" viewBox="0 0 28 27" fill="none" xmlns="http://www.w3.org/2000/svg">
<ellipse cx="13.9783" cy="13.1643" rx="13.0799" ry="12.9122" fill="#3399FF"/>
<path d="M18.2331 15.7667L18.2338 15.8286C18.2349 16.6857 17.9097 17.5119 17.3226 18.1435L17.3247 18.1408C16.7132 18.8057 15.8862 19.2395 14.9859 19.3678L14.9647 19.3705V20.9582C14.9647 21.0319 14.9351 21.1026 14.8823 21.1547C14.8295 21.2068 14.7579 21.236 14.6833 21.236H14.6717H14.6724H13.441C13.3637 21.2352 13.2899 21.2045 13.2352 21.1505C13.1806 21.0966 13.1495 21.0237 13.1486 20.9474V19.3705C12.738 19.3164 12.3344 19.2185 11.9451 19.0786L11.9853 19.0914C11.4038 18.8993 10.8582 18.6143 10.3703 18.2477L10.3839 18.2578C10.2348 18.1514 10.0918 18.0371 9.95524 17.9154L9.96001 17.9194C9.88414 17.8477 9.83099 17.7939 9.80055 17.758C9.75128 17.7096 9.72219 17.6448 9.71904 17.5763C9.71588 17.5077 9.73889 17.4406 9.78351 17.388L9.78283 17.3887L10.7226 16.1724C10.7475 16.1406 10.7792 16.1145 10.8153 16.096C10.8514 16.0774 10.8911 16.0667 10.9318 16.0647H10.9325C10.9729 16.0574 11.0146 16.0611 11.053 16.0754C11.0914 16.0898 11.1252 16.1142 11.1505 16.1461L11.1512 16.1468L11.1689 16.1643C11.7851 16.7212 12.5392 17.1078 13.3551 17.2851L13.3865 17.2911C13.5895 17.3369 13.8226 17.3631 14.0618 17.3631L14.104 17.3638C14.5749 17.3638 15.0111 17.2185 15.3702 16.9709L15.3627 16.9756C15.5439 16.8547 15.6906 16.69 15.7889 16.4972C15.8872 16.3044 15.9338 16.09 15.9243 15.8743V15.877C15.9243 15.7001 15.8731 15.5353 15.7852 15.396L15.7873 15.4001C15.7042 15.2612 15.6017 15.1345 15.4827 15.024L15.482 15.0233C15.3236 14.8922 15.1494 14.7808 14.9634 14.6917L14.9484 14.6849C14.7049 14.5621 14.505 14.4659 14.3487 14.3963C14.1924 14.3268 13.9491 14.2293 13.6188 14.1037C13.3817 14.0077 13.1945 13.9326 13.0573 13.8783C12.9201 13.8241 12.7329 13.7445 12.4958 13.6395C12.2586 13.5346 12.0685 13.4415 11.9254 13.3603C11.7823 13.2791 11.6103 13.1726 11.4095 13.0408C11.2336 12.9289 11.069 12.8005 10.9182 12.6573L10.9188 12.658C10.7819 12.5212 10.6523 12.3775 10.5304 12.2274L10.5215 12.2167C10.3925 12.0622 10.2854 11.8911 10.2033 11.7081L10.1978 11.694C10.1187 11.5082 10.056 11.3159 10.0104 11.1194L10.0057 11.0952C9.95353 10.8697 9.92747 10.639 9.92798 10.4077V10.3915V10.3714C9.92798 9.53044 10.2694 8.76756 10.8234 8.21188L10.8228 8.21255C11.4403 7.57876 12.2473 7.15697 13.1255 7.00903L13.15 7.00567V5.38101V5.37832C13.15 5.29961 13.1834 5.2283 13.2365 5.17784C13.2628 5.15083 13.2943 5.12933 13.3292 5.11465C13.3641 5.09997 13.4017 5.0924 13.4396 5.09241H14.6847C14.84 5.09241 14.9661 5.21686 14.9661 5.37025V5.38168V5.38101V6.96665C15.3409 7.00567 15.683 7.07899 16.0108 7.18394L15.9747 7.17385C16.2875 7.26803 16.5505 7.37096 16.8034 7.49071L16.7679 7.47591C16.9914 7.58556 17.1816 7.69791 17.3615 7.82304L17.3479 7.81362C17.5296 7.9401 17.6482 8.0271 17.7036 8.07464C17.759 8.12218 17.8047 8.16412 17.8406 8.20044C17.8896 8.2421 17.9213 8.30017 17.9296 8.36349C17.9379 8.42682 17.9222 8.49093 17.8855 8.54354L17.8862 8.54287L17.1489 9.85874C17.1305 9.89918 17.1013 9.93394 17.0644 9.95929C17.0276 9.98465 16.9845 9.99965 16.9397 10.0027H16.939C16.8957 10.0116 16.8509 10.0105 16.8081 9.99954C16.7654 9.98857 16.7257 9.96801 16.6923 9.93946H16.693C16.6748 9.92153 16.6307 9.88565 16.5608 9.83183C16.4908 9.77801 16.3722 9.6984 16.205 9.59301C16.0428 9.49036 15.8741 9.39801 15.7001 9.31651L15.6714 9.3044C15.4617 9.20919 15.2436 9.13286 15.0199 9.07635L14.9913 9.07029C14.7373 9.00164 14.4751 8.9668 14.2117 8.96669H14.211C13.7064 8.94387 13.2076 9.08159 12.7881 9.35957L12.797 9.35418C12.565 9.50636 12.3923 9.73192 12.3074 9.99379C12.2224 10.2557 12.2302 10.5383 12.3295 10.7952L12.3268 10.7871C12.3895 10.9351 12.4808 11.0602 12.5953 11.1605L12.5966 11.1612C12.7063 11.2627 12.8236 11.3603 12.9462 11.4511L12.9571 11.4585C13.1036 11.5581 13.272 11.6516 13.4485 11.7296L13.4689 11.7377C13.697 11.8426 13.881 11.9238 14.0209 11.9812C14.1608 12.0386 14.3739 12.1211 14.6601 12.2288C14.9827 12.349 15.2292 12.4436 15.3995 12.5127C15.5699 12.5817 15.8011 12.6869 16.0933 12.8282C16.3393 12.9423 16.5765 13.0743 16.8027 13.2231L16.7829 13.211C16.9942 13.359 17.1782 13.507 17.3533 13.6651L17.3492 13.661C17.538 13.8238 17.6988 14.0122 17.8269 14.2228L17.8331 14.2335C17.9462 14.4306 18.0436 14.66 18.1145 14.9002L18.1206 14.9231C18.1949 15.1686 18.2372 15.4512 18.2372 15.7432V15.7714V15.7701L18.2331 15.7667Z" fill="white"/>
</svg>
