<svg width="24" height="23" viewBox="0 0 24 23" fill="none" xmlns="http://www.w3.org/2000/svg">
<path d="M12.4502 22.7615C9.49279 22.759 6.64935 21.6352 4.50731 19.6222C2.36528 17.6092 1.08832 14.8609 0.940258 11.9451C0.792195 9.02927 1.78434 6.16869 3.71172 3.95435C5.63909 1.74001 8.35443 0.341098 11.2968 0.0466309V4.64677C10.0456 4.85571 8.87688 5.40054 7.91853 6.22157C6.96018 7.04259 6.24921 8.10815 5.86348 9.30151C5.47776 10.4949 5.43216 11.77 5.73169 12.9873C6.03122 14.2045 6.66432 15.3169 7.56164 16.2026C8.45896 17.0883 9.58589 17.7131 10.819 18.0086C12.0521 18.3041 13.3438 18.2589 14.5526 17.878C15.7614 17.497 16.8407 16.795 17.6722 15.8488C18.5038 14.9027 19.0555 13.7488 19.267 12.5137H23.9257C23.636 15.3208 22.3024 17.9223 20.1826 19.8151C18.0628 21.7079 15.3085 22.7577 12.4502 22.7615Z" fill="#6E768C"/>
<path d="M23.9248 10.2363H19.2649C19.0254 8.83952 18.3516 7.55096 17.3367 6.54937C16.3219 5.54777 15.0165 4.88278 13.6016 4.64665V0.0465088C16.2468 0.313605 18.7179 1.47281 20.5984 3.32874C22.4788 5.18467 23.6537 7.62384 23.9248 10.2351V10.2363Z" fill="#3399FF"/>
</svg>
