<svg width="57" height="56" viewBox="0 0 57 56" fill="none" xmlns="http://www.w3.org/2000/svg">
<path d="M8.06473 5.42007V54.8635H49.1841V5.47235M49.8956 8.73144H55.6209V1.51379H1.58594V8.73144H7.31104" stroke="#6E768C" stroke-width="1.5"/>
<path d="M34.1978 28.3882L34.1987 28.4706C34.2002 29.6121 33.7726 30.7125 33.0009 31.5535L33.0035 31.5499C32.1996 32.4354 31.1124 33.0133 29.9287 33.1841L29.9009 33.1877V35.3021C29.9009 35.4003 29.8619 35.4944 29.7925 35.5638C29.7231 35.6332 29.629 35.6722 29.5309 35.6722H29.5156H29.5165H27.8976C27.796 35.671 27.6989 35.6301 27.6271 35.5583C27.5552 35.4865 27.5144 35.3894 27.5132 35.2878V33.1877C26.9733 33.1156 26.4428 32.9852 25.931 32.7989L25.9838 32.8159C25.2193 32.5602 24.502 32.1806 23.8605 31.6924L23.8784 31.7058C23.6824 31.5641 23.4943 31.4119 23.3148 31.2498L23.3211 31.2552C23.2213 31.1596 23.1515 31.0879 23.1114 31.0401C23.0467 30.9757 23.0084 30.8894 23.0043 30.7981C23.0001 30.7069 23.0304 30.6174 23.089 30.5474L23.0882 30.5483L24.3237 28.9284C24.3565 28.8861 24.3981 28.8514 24.4455 28.8267C24.493 28.8019 24.5452 28.7877 24.5987 28.7851H24.5996C24.6527 28.7753 24.7075 28.7802 24.758 28.7994C24.8086 28.8185 24.8529 28.851 24.8863 28.8935L24.8872 28.8944L24.9105 28.9177C25.7206 29.6594 26.712 30.1743 27.7847 30.4103L27.8259 30.4184C28.0929 30.4793 28.3993 30.5142 28.7138 30.5142L28.7693 30.5151C29.3884 30.5151 29.9618 30.3216 30.434 29.9919L30.4241 29.9982C30.6623 29.8372 30.8552 29.6178 30.9844 29.3611C31.1137 29.1043 31.1749 28.8187 31.1624 28.5315V28.5351C31.1624 28.2995 31.0952 28.08 30.9796 27.8945L30.9823 27.8999C30.8731 27.7149 30.7383 27.5463 30.5818 27.399L30.5809 27.3981C30.3727 27.2235 30.1437 27.0751 29.8991 26.9564L29.8794 26.9475C29.5592 26.7838 29.2964 26.6557 29.091 26.5631C28.8855 26.4705 28.5656 26.3406 28.1314 26.1734C27.8196 26.0456 27.5735 25.9455 27.3932 25.8732C27.2128 25.801 26.9667 25.695 26.6549 25.5552C26.3431 25.4154 26.0931 25.2915 25.905 25.1834C25.7168 25.0753 25.4908 24.9334 25.2268 24.7578C24.9955 24.6088 24.7792 24.4378 24.5808 24.2471L24.5817 24.248C24.4017 24.0658 24.2312 23.8744 24.071 23.6746L24.0594 23.6603C23.8897 23.4546 23.7489 23.2267 23.6409 22.9829L23.6338 22.9641C23.5297 22.7167 23.4473 22.4607 23.3874 22.199L23.3811 22.1667C23.3126 21.8664 23.2783 21.5592 23.279 21.2511V21.2296V21.2027C23.279 20.0828 23.7279 19.0668 24.4563 18.3267L24.4554 18.3276C25.2673 17.4835 26.3283 16.9218 27.4827 16.7248L27.515 16.7203V14.5566V14.553C27.515 14.4482 27.5589 14.3532 27.6288 14.286C27.6633 14.25 27.7048 14.2214 27.7507 14.2019C27.7965 14.1823 27.8459 14.1722 27.8958 14.1722H29.5327C29.7369 14.1722 29.9027 14.338 29.9027 14.5423V14.5575V14.5566V16.6683C30.3955 16.7203 30.8452 16.818 31.2762 16.9577L31.2287 16.9443C31.6399 17.0697 31.9858 17.2068 32.3181 17.3663L32.2716 17.3466C32.5654 17.4926 32.8154 17.6422 33.0519 17.8089L33.034 17.7963C33.2729 17.9648 33.4288 18.0806 33.5017 18.144C33.5746 18.2073 33.6346 18.2631 33.6818 18.3115C33.7462 18.367 33.7879 18.4443 33.7988 18.5286C33.8097 18.613 33.7891 18.6984 33.7409 18.7684L33.7418 18.7675L32.7724 20.52C32.7482 20.5739 32.7098 20.6201 32.6614 20.6539C32.6129 20.6877 32.5562 20.7077 32.4973 20.7117H32.4964C32.4395 20.7236 32.3807 20.7221 32.3244 20.7075C32.2682 20.6929 32.2161 20.6655 32.1721 20.6275H32.173C32.1491 20.6036 32.0912 20.5558 31.9992 20.4842C31.9072 20.4125 31.7513 20.3065 31.5315 20.1661C31.3182 20.0294 31.0965 19.9064 30.8676 19.7979L30.83 19.7817C30.5542 19.6549 30.2675 19.5533 29.9735 19.478L29.9358 19.4699C29.6019 19.3785 29.2572 19.3321 28.9109 19.332H28.91C28.2465 19.3016 27.5907 19.485 27.0393 19.8552L27.0509 19.848C26.7459 20.0507 26.5189 20.3511 26.4072 20.6999C26.2955 21.0486 26.3058 21.425 26.4363 21.7671L26.4327 21.7564C26.5151 21.9535 26.6352 22.1201 26.7857 22.2536L26.7875 22.2545C26.9317 22.3898 27.0858 22.5197 27.2471 22.6407L27.2615 22.6505C27.4541 22.7831 27.6754 22.9077 27.9074 23.0116L27.9343 23.0224C28.2341 23.1621 28.4761 23.2702 28.66 23.3467C28.844 23.4231 29.1241 23.533 29.5004 23.6764C29.9245 23.8365 30.2485 23.9625 30.4725 24.0545C30.6965 24.1465 31.0005 24.2865 31.3846 24.4747C31.7081 24.6266 32.0198 24.8024 32.3173 25.0006L32.2913 24.9845C32.569 25.1816 32.8109 25.3787 33.0412 25.5892L33.0358 25.5839C33.284 25.8007 33.4954 26.0515 33.6639 26.332L33.6719 26.3463C33.8206 26.6088 33.9488 26.9143 34.0419 27.2342L34.05 27.2646C34.1477 27.5917 34.2032 27.968 34.2032 28.3568V28.3944V28.3926L34.1978 28.3882Z" fill="#6E768C"/>
</svg>
