<svg width="65" height="56" viewBox="0 0 65 56" fill="none" xmlns="http://www.w3.org/2000/svg">
<path fill-rule="evenodd" clip-rule="evenodd" d="M41.8819 55.0552C48.7145 55.1849 56.3314 54.3298 63.6462 51.6287C64.6688 47.6125 63.6695 42.7117 63.1814 40.795C62.6934 38.8783 60.7819 35.5345 56.0002 33.7062C51.2186 31.878 47.7849 31.5183 47.3723 31.2706C46.9598 31.0229 45.7049 29.4306 47.2039 28.5754C48.7028 27.7203 53.3102 23.4859 53.6181 19.0864C56.0641 17.3466 55.7504 14.6397 53.3276 14.4568C53.4613 12.6758 53.2928 10.2873 53.1068 9.24345C52.9732 8.48267 51.6834 0.756958 42.3409 0.756958C32.9983 0.756958 31.5633 8.24677 31.3076 9.21986C31.0752 10.1163 30.9765 13.1004 31.1275 14.3861C28.7047 14.5689 28.391 17.2758 30.837 19.0156C31.1508 23.4151 35.0609 27.7144 36.5657 28.5754C38.0647 29.4306 36.8097 31.0229 36.3972 31.2706C35.9847 31.5183 32.551 31.878 27.7693 33.7062C22.9877 35.5345 21.0762 38.8783 20.5881 40.795C20.1001 42.7117 19.1008 47.6125 20.1233 51.6287C27.4381 54.3298 35.0551 55.1849 41.8877 55.0552H41.8819Z" stroke="#6E768C" stroke-width="1.5" stroke-miterlimit="22.9256"/>
<path d="M31.1328 10.5233C31.1328 10.5233 36.5884 12.1098 39.3424 8.51819C42.2997 13.0769 51.8514 13.0121 53.3445 11.8385" stroke="#6E768C" stroke-width="1.5" stroke-miterlimit="22.9256"/>
<path d="M24.4221 31.483C22.435 30.9227 21.122 30.7517 20.9128 30.6278C20.6107 30.445 19.6985 29.2891 20.7908 28.664C21.8831 28.0388 25.2355 24.9603 25.462 21.7521C27.2399 20.4842 27.0191 18.5144 25.2529 18.3846C25.3517 17.0872 25.2296 15.3474 25.0902 14.5867C24.9914 14.0323 24.056 8.41199 17.2525 8.41199C10.4547 8.41199 9.40313 13.8672 9.22302 14.5749C9.05453 15.2236 8.979 17.3998 9.0952 18.3375C7.32895 18.4672 7.10236 20.4429 8.88604 21.7049C9.11263 24.9073 11.9595 28.0388 13.0518 28.664C14.1441 29.2891 13.2319 30.445 12.9298 30.6278C12.6277 30.8107 10.1294 31.0702 6.64918 32.403C3.16897 33.7358 1.77457 36.1656 1.42015 37.5633C1.06574 38.961 0.333679 42.5231 1.08317 45.4482C6.12047 47.3118 11.3611 47.9665 16.1253 47.9547C16.3926 47.9547 16.6599 47.9488 16.9271 47.9488" stroke="#6E768C" stroke-width="1.5" stroke-miterlimit="22.9256" stroke-linecap="round"/>
<path d="M25.2689 15.5242C25.2689 15.5242 21.3006 16.6801 19.2903 14.0675C17.1348 17.3878 10.186 17.3406 9.09375 16.4855" stroke="#6E768C" stroke-width="1.5" stroke-miterlimit="22.9256"/>
</svg>
