<svg width="21" height="21" viewBox="0 0 21 21" fill="none" xmlns="http://www.w3.org/2000/svg">
<path fill-rule="evenodd" clip-rule="evenodd" d="M19.5031 11.2787C19.5794 11.3098 19.6611 11.3256 19.7435 11.3251C19.8666 11.3246 19.9869 11.2879 20.0892 11.2195C20.1915 11.1512 20.2714 11.0542 20.3188 10.9408C20.3663 10.8274 20.3792 10.7026 20.3559 10.5819C20.3327 10.4612 20.2743 10.35 20.1882 10.2623L10.7945 0.884617C10.6771 0.768177 10.5184 0.70282 10.353 0.70282C10.1875 0.70282 10.0288 0.768177 9.91146 0.884617L0.517773 10.2623C0.415177 10.3819 0.361567 10.5357 0.367655 10.6931C0.373742 10.8504 0.43908 10.9997 0.550611 11.111C0.662142 11.2223 0.811652 11.2876 0.969263 11.2936C1.12687 11.2997 1.28098 11.2462 1.40078 11.1438L10.3498 2.20374L19.2989 11.1438C19.3574 11.2017 19.4268 11.2476 19.5031 11.2787ZM2.83496 11.8441L10.3499 4.31691L17.8649 11.8003V19.4525C17.8649 19.7841 17.7329 20.1021 17.498 20.3366C17.2631 20.5711 16.9446 20.7028 16.6124 20.7028H12.2287V14.451H8.47118V20.7028H4.08745C3.75527 20.7028 3.4367 20.5711 3.20181 20.3366C2.96692 20.1021 2.83496 19.7841 2.83496 19.4525V11.8441Z" fill="#C0C4C6"/>
</svg>
