<svg width="17" height="22" viewBox="0 0 17 22" fill="none" xmlns="http://www.w3.org/2000/svg">
<path d="M8.63608 0.181519C6.46143 0.184084 4.37659 1.04909 2.83889 2.5868C1.30118 4.12451 0.436168 6.20935 0.433602 8.38399C0.430998 10.1611 1.01149 11.89 2.08603 13.3055C2.08603 13.3055 2.30973 13.6 2.34627 13.6425L8.63608 21.0605L14.9289 13.6388C14.9617 13.5993 15.1861 13.3055 15.1861 13.3055L15.1869 13.3032C16.2609 11.8884 16.8411 10.1603 16.8386 8.38399C16.836 6.20935 15.971 4.12451 14.4333 2.5868C12.8956 1.04909 10.8107 0.184084 8.63608 0.181519ZM8.63608 11.3667C8.04615 11.3667 7.46947 11.1918 6.97897 10.864C6.48846 10.5363 6.10616 10.0705 5.88041 9.52543C5.65465 8.98041 5.59558 8.38068 5.71067 7.80209C5.82576 7.2235 6.10984 6.69203 6.52698 6.27489C6.94412 5.85775 7.47559 5.57368 8.05418 5.45859C8.63277 5.3435 9.23249 5.40257 9.77751 5.62832C10.3225 5.85408 10.7884 6.23638 11.1161 6.72688C11.4439 7.21739 11.6188 7.79407 11.6188 8.38399C11.6178 9.17476 11.3032 9.93285 10.7441 10.492C10.1849 11.0512 9.42684 11.3657 8.63608 11.3667Z" fill="#C0C4C6"/>
</svg>
