<svg width="21" height="15" viewBox="0 0 21 15" fill="none" xmlns="http://www.w3.org/2000/svg">
<path d="M18.8063 14.2271H1.79698C1.46793 14.2271 1.18318 14.1746 0.942719 14.0697C0.702261 13.9647 0.582031 13.8404 0.582031 13.6968V5.21242C0.582031 5.20137 0.601015 5.14613 0.638982 5.0467L2.80311 0.854219C2.84108 0.743745 2.96763 0.64708 3.18278 0.564225C3.39793 0.481369 3.63206 0.439941 3.88517 0.439941H16.832C17.0977 0.439941 17.335 0.481369 17.5439 0.564225C17.7527 0.64708 17.8824 0.743745 17.933 0.854219L19.9833 5.0467C20.0086 5.11299 20.0212 5.16823 20.0212 5.21242V13.6968C20.0212 13.8404 19.901 13.9647 19.6605 14.0697C19.4201 14.1746 19.1353 14.2271 18.8063 14.2271ZM6.65678 1.50049H6.37202C6.2075 1.76563 5.91958 2.00867 5.50827 2.22962C5.09696 2.45057 4.66983 2.56104 4.22688 2.56104H3.14481L2.65124 3.62159H4.22688C4.87232 3.62159 5.28047 3.66854 5.45132 3.76245C5.62217 3.85635 5.67596 4.06901 5.61268 4.40043L5.55573 4.68214H6.65678V1.50049ZM6.65678 5.74269H1.79698V6.5381C1.79698 6.61543 1.8571 6.67896 1.97732 6.72867C2.09755 6.77838 2.23993 6.80324 2.40446 6.80324H6.65678V5.74269ZM6.65678 7.86379H1.79698V8.6592C1.79698 8.73653 1.8571 8.80006 1.97732 8.84977C2.09755 8.89948 2.23993 8.92434 2.40446 8.92434H6.65678V7.86379ZM6.65678 9.98489H1.79698V10.7803C1.79698 10.8576 1.8571 10.9212 1.97732 10.9709C2.09755 11.0206 2.23993 11.0454 2.40446 11.0454H6.65678V9.98489ZM6.65678 12.106H1.79698V12.9014C1.79698 12.9787 1.8571 13.0423 1.97732 13.092C2.09755 13.1417 2.23993 13.1665 2.40446 13.1665H6.65678V12.106ZM12.7315 9.45462C12.7315 9.311 12.6714 9.18672 12.5512 9.08177C12.431 8.97682 12.2886 8.92434 12.1241 8.92434H9.08668V7.86379H12.1241C12.3772 7.86379 12.5607 7.76436 12.6746 7.56551C12.5986 7.34456 12.4531 7.16228 12.238 7.01866C12.0228 6.87505 11.7823 6.80324 11.5166 6.80324V6.27297C11.5166 6.12935 11.4565 6.00507 11.3362 5.90012C11.216 5.79517 11.0736 5.74269 10.9091 5.74269C10.7446 5.74269 10.6022 5.79517 10.482 5.90012C10.3617 6.00507 10.3016 6.12935 10.3016 6.27297V6.80324H9.08668C8.75763 6.80324 8.47287 6.90819 8.23242 7.11809C7.99196 7.32799 7.87173 7.57656 7.87173 7.86379V9.45462C7.87173 9.59823 7.93184 9.72251 8.05207 9.82747C8.1723 9.93242 8.31468 9.98489 8.4792 9.98489H11.5166V11.0454H8.4792C8.22609 11.0454 8.04258 11.1504 7.92868 11.3603C8.01727 11.5812 8.16597 11.7608 8.37479 11.8989C8.58361 12.0369 8.82091 12.106 9.08668 12.106V12.6363C9.08668 12.7799 9.14679 12.9042 9.26702 13.0091C9.38725 13.1141 9.52963 13.1665 9.69415 13.1665C9.85868 13.1665 10.0011 13.1141 10.1213 13.0091C10.2415 12.9042 10.3016 12.7799 10.3016 12.6363V12.106H11.5166C11.8583 12.106 12.1462 12.0038 12.3803 11.7994C12.6145 11.595 12.7315 11.3437 12.7315 11.0454V9.45462ZM17.4774 2.56104H16.3764C15.9334 2.56104 15.5189 2.45333 15.1329 2.2379C14.7469 2.02248 14.478 1.77668 14.3261 1.50049H13.9465V4.68214H15.0665L15.0285 4.40043C14.9653 4.08006 15.0981 3.87016 15.4272 3.77073C15.7562 3.6713 16.2751 3.62159 16.9838 3.62159H17.952L17.4774 2.56104ZM18.8063 5.74269H13.9465V6.80324H18.1988C18.3633 6.80324 18.5057 6.77838 18.6259 6.72867C18.7462 6.67896 18.8063 6.61543 18.8063 6.5381V5.74269ZM18.8063 7.86379H13.9465V8.92434H18.1988C18.3633 8.92434 18.5057 8.89948 18.6259 8.84977C18.7462 8.80006 18.8063 8.73653 18.8063 8.6592V7.86379ZM18.8063 9.98489H13.9465V11.0454H18.1988C18.3633 11.0454 18.5057 11.0206 18.6259 10.9709C18.7462 10.9212 18.8063 10.8576 18.8063 10.7803V9.98489ZM18.8063 12.106H13.9465V13.1665H18.1988C18.3633 13.1665 18.5057 13.1417 18.6259 13.092C18.7462 13.0423 18.8063 12.9787 18.8063 12.9014V12.106Z" fill="#C0C4C6"/>
</svg>
