<svg width="16" height="16" viewBox="0 0 16 16" fill="none" xmlns="http://www.w3.org/2000/svg">
<path d="M10.5095 11.213L11.7695 9.95296C11.9392 9.78535 12.1539 9.67063 12.3876 9.6227C12.6212 9.57477 12.8638 9.5957 13.0858 9.68296L14.6214 10.2961C14.8457 10.3871 15.0381 10.5426 15.1742 10.7428C15.3104 10.943 15.3842 11.179 15.3864 11.4211V14.2336C15.3851 14.3983 15.3505 14.561 15.2846 14.7119C15.2188 14.8629 15.1231 14.999 15.0032 15.112C14.8834 15.225 14.742 15.3125 14.5874 15.3694C14.4328 15.4263 14.2684 15.4513 14.1039 15.443C3.34327 14.7736 1.17202 5.66108 0.761397 2.17358C0.742336 2.00232 0.759752 1.82896 0.812499 1.66492C0.865247 1.50087 0.952131 1.34985 1.06744 1.22179C1.18274 1.09374 1.32385 0.991545 1.48149 0.921941C1.63912 0.852337 1.80971 0.816898 1.98202 0.817955H4.6989C4.94134 0.818673 5.17802 0.891906 5.37851 1.02823C5.57899 1.16456 5.7341 1.35775 5.8239 1.58296L6.43702 3.11858C6.52716 3.33968 6.55016 3.58244 6.50314 3.81654C6.45612 4.05063 6.34117 4.26568 6.17265 4.43483L4.91265 5.69483C4.91265 5.69483 5.63827 10.6055 10.5095 11.213Z" fill="#C0C4C6"/>
</svg>
